<svg xmlns="http://www.w3.org/2000/svg" xmlns:xlink="http://www.w3.org/1999/xlink" width="500" zoomAndPan="magnify" viewBox="0 0 375 374.999991" height="500" preserveAspectRatio="xMidYMid meet" version="1.0"><defs><clipPath id="1178a4fa1c"><path d="M 8 150.15625 L 367 150.15625 L 367 225 L 8 225 Z M 8 150.15625 " clip-rule="nonzero"/></clipPath></defs><path fill="#d19a40" d="M 37.949219 182.65625 C 39.335938 182.730469 40.507812 181.640625 40.582031 180.246094 C 40.652344 178.851562 39.570312 177.675781 38.183594 177.601562 C 36.792969 177.53125 35.621094 178.617188 35.550781 180.011719 C 35.496094 181.40625 36.558594 182.582031 37.949219 182.65625 Z M 37.949219 182.65625 " fill-opacity="1" fill-rule="nonzero"/><path fill="#d19a40" d="M 36.792969 193.5625 C 35.40625 193.652344 34.339844 194.847656 34.414062 196.242188 C 34.484375 197.636719 35.695312 198.707031 37.082031 198.617188 C 38.472656 198.523438 39.535156 197.328125 39.460938 195.933594 C 39.390625 194.539062 38.183594 193.488281 36.792969 193.5625 Z M 36.792969 193.5625 " fill-opacity="1" fill-rule="nonzero"/><path fill="#d19a40" d="M 54.105469 179.140625 C 54.433594 179.175781 54.746094 179.273438 55.039062 179.433594 C 55.332031 179.59375 55.582031 179.800781 55.789062 180.0625 C 56 180.320312 56.152344 180.609375 56.246094 180.929688 C 56.339844 181.25 56.371094 181.578125 56.335938 181.910156 C 56.300781 182.242188 56.203125 182.554688 56.042969 182.847656 C 55.886719 183.140625 55.675781 183.390625 55.417969 183.601562 C 55.160156 183.8125 54.871094 183.964844 54.554688 184.058594 C 54.234375 184.15625 53.910156 184.183594 53.578125 184.148438 C 53.25 184.113281 52.9375 184.015625 52.644531 183.859375 C 52.351562 183.699219 52.101562 183.488281 51.894531 183.230469 C 51.683594 182.96875 51.53125 182.679688 51.4375 182.359375 C 51.34375 182.039062 51.316406 181.714844 51.347656 181.382812 C 51.382812 181.050781 51.480469 180.738281 51.640625 180.441406 C 51.796875 180.148438 52.007812 179.898438 52.265625 179.6875 C 52.523438 179.476562 52.8125 179.324219 53.128906 179.230469 C 53.449219 179.136719 53.773438 179.105469 54.105469 179.140625 Z M 54.105469 179.140625 " fill-opacity="1" fill-rule="nonzero"/><path fill="#d19a40" d="M 52.285156 195.5 C 50.894531 195.535156 49.8125 196.695312 49.851562 198.089844 C 49.886719 199.484375 51.039062 200.570312 52.429688 200.535156 C 53.816406 200.5 54.898438 199.339844 54.863281 197.945312 C 54.828125 196.550781 53.671875 195.464844 52.285156 195.5 Z M 52.285156 195.5 " fill-opacity="1" fill-rule="nonzero"/><path fill="#d19a40" d="M 72.460938 164.394531 C 72.75 164.359375 73.039062 164.214844 73.257812 163.980469 L 75.996094 161.042969 C 76.503906 160.5 76.484375 159.632812 75.925781 159.125 C 75.382812 158.617188 74.519531 158.636719 74.011719 159.195312 L 71.273438 162.132812 C 70.769531 162.675781 70.785156 163.542969 71.34375 164.050781 C 71.652344 164.339844 72.066406 164.449219 72.460938 164.394531 Z M 72.460938 164.394531 " fill-opacity="1" fill-rule="nonzero"/><path fill="#d19a40" d="M 68.496094 168.652344 C 68.785156 168.617188 69.074219 168.472656 69.289062 168.238281 L 70.515625 166.914062 C 71.019531 166.371094 71.003906 165.5 70.441406 164.992188 C 69.902344 164.488281 69.035156 164.503906 68.53125 165.066406 L 67.304688 166.390625 C 66.800781 166.933594 66.820312 167.800781 67.378906 168.308594 C 67.683594 168.597656 68.097656 168.726562 68.496094 168.652344 Z M 68.496094 168.652344 " fill-opacity="1" fill-rule="nonzero"/><path fill="#d19a40" d="M 17.894531 162.003906 L 14.8125 159.433594 C 14.234375 158.945312 13.386719 159.035156 12.898438 159.613281 C 12.414062 160.191406 12.503906 161.042969 13.082031 161.535156 L 16.164062 164.105469 C 16.398438 164.304688 16.6875 164.414062 16.957031 164.414062 C 17.371094 164.433594 17.789062 164.269531 18.058594 163.925781 C 18.542969 163.34375 18.472656 162.492188 17.894531 162.003906 Z M 17.894531 162.003906 " fill-opacity="1" fill-rule="nonzero"/><path fill="#d19a40" d="M 22.347656 165.753906 L 20.960938 164.59375 C 20.382812 164.105469 19.535156 164.195312 19.050781 164.777344 C 18.5625 165.355469 18.652344 166.207031 19.230469 166.695312 L 20.617188 167.855469 C 20.851562 168.054688 21.140625 168.164062 21.410156 168.164062 C 21.828125 168.183594 22.242188 168.019531 22.511719 167.675781 C 23.015625 167.078125 22.925781 166.226562 22.347656 165.753906 Z M 22.347656 165.753906 " fill-opacity="1" fill-rule="nonzero"/><path fill="#d19a40" d="M 19.390625 214.210938 C 18.832031 213.707031 17.96875 213.757812 17.480469 214.304688 L 14.777344 217.308594 C 14.269531 217.871094 14.324219 218.722656 14.867188 219.230469 C 15.15625 219.484375 15.496094 219.59375 15.859375 219.574219 C 16.199219 219.554688 16.542969 219.410156 16.796875 219.121094 L 19.5 216.113281 C 19.988281 215.570312 19.953125 214.71875 19.390625 214.210938 Z M 19.390625 214.210938 " fill-opacity="1" fill-rule="nonzero"/><path fill="#d19a40" d="M 23.304688 209.847656 C 22.746094 209.339844 21.878906 209.394531 21.394531 209.9375 L 20.1875 211.296875 C 19.679688 211.859375 19.734375 212.710938 20.277344 213.214844 C 20.5625 213.46875 20.90625 213.578125 21.269531 213.558594 C 21.609375 213.542969 21.953125 213.398438 22.207031 213.109375 L 23.414062 211.75 C 23.902344 211.222656 23.863281 210.355469 23.304688 209.847656 Z M 23.304688 209.847656 " fill-opacity="1" fill-rule="nonzero"/><path fill="#d19a40" d="M 75.65625 217.128906 L 72.660156 214.449219 C 72.101562 213.941406 71.253906 213.996094 70.75 214.558594 C 70.246094 215.117188 70.300781 215.96875 70.859375 216.476562 L 73.851562 219.15625 C 74.121094 219.394531 74.464844 219.519531 74.789062 219.503906 C 75.148438 219.484375 75.492188 219.339844 75.761719 219.050781 C 76.25 218.488281 76.214844 217.636719 75.65625 217.128906 Z M 75.65625 217.128906 " fill-opacity="1" fill-rule="nonzero"/><path fill="#d19a40" d="M 69.667969 211.75 L 68.316406 210.535156 C 67.757812 210.027344 66.910156 210.082031 66.402344 210.644531 C 65.898438 211.207031 65.953125 212.058594 66.511719 212.5625 L 67.863281 213.777344 C 68.136719 214.011719 68.476562 214.140625 68.800781 214.121094 C 69.164062 214.105469 69.523438 213.960938 69.777344 213.667969 C 70.261719 213.109375 70.226562 212.257812 69.667969 211.75 Z M 69.667969 211.75 " fill-opacity="1" fill-rule="nonzero"/><path fill="#d19a40" d="M 109.429688 181.839844 C 110.820312 181.914062 111.992188 180.828125 112.0625 179.429688 C 112.136719 178.035156 111.054688 176.859375 109.664062 176.785156 C 108.277344 176.714844 107.105469 177.800781 107.03125 179.195312 C 106.976562 180.589844 108.058594 181.769531 109.429688 181.839844 Z M 109.429688 181.839844 " fill-opacity="1" fill-rule="nonzero"/><path fill="#d19a40" d="M 110.957031 195.121094 C 110.976562 195.457031 110.933594 195.785156 110.824219 196.101562 C 110.714844 196.421875 110.546875 196.707031 110.328125 196.957031 C 110.105469 197.210938 109.84375 197.410156 109.542969 197.558594 C 109.242188 197.703125 108.925781 197.789062 108.589844 197.808594 C 108.257812 197.828125 107.929688 197.785156 107.613281 197.675781 C 107.296875 197.566406 107.015625 197.402344 106.761719 197.175781 C 106.511719 196.953125 106.3125 196.691406 106.167969 196.390625 C 106.019531 196.089844 105.9375 195.769531 105.914062 195.433594 C 105.894531 195.097656 105.941406 194.769531 106.046875 194.453125 C 106.15625 194.136719 106.324219 193.851562 106.542969 193.597656 C 106.765625 193.347656 107.027344 193.144531 107.328125 193 C 107.628906 192.851562 107.945312 192.765625 108.28125 192.746094 C 108.613281 192.726562 108.941406 192.769531 109.257812 192.878906 C 109.574219 192.988281 109.855469 193.15625 110.109375 193.378906 C 110.359375 193.601562 110.558594 193.863281 110.703125 194.164062 C 110.851562 194.46875 110.933594 194.785156 110.957031 195.121094 Z M 110.957031 195.121094 " fill-opacity="1" fill-rule="nonzero"/><path fill="#d19a40" d="M 125.59375 178.332031 C 125.925781 178.367188 126.234375 178.464844 126.527344 178.621094 C 126.820312 178.78125 127.070312 178.992188 127.28125 179.25 C 127.488281 179.511719 127.640625 179.800781 127.734375 180.121094 C 127.828125 180.441406 127.859375 180.765625 127.824219 181.097656 C 127.789062 181.429688 127.691406 181.742188 127.535156 182.035156 C 127.375 182.332031 127.167969 182.582031 126.90625 182.792969 C 126.648438 183.003906 126.359375 183.15625 126.042969 183.25 C 125.722656 183.34375 125.398438 183.375 125.070312 183.339844 C 124.738281 183.304688 124.425781 183.207031 124.132812 183.046875 C 123.84375 182.886719 123.589844 182.679688 123.382812 182.417969 C 123.171875 182.160156 123.023438 181.871094 122.925781 181.550781 C 122.832031 181.230469 122.804688 180.902344 122.839844 180.570312 C 122.875 180.238281 122.96875 179.925781 123.128906 179.632812 C 123.289062 179.339844 123.496094 179.085938 123.753906 178.878906 C 124.011719 178.667969 124.300781 178.515625 124.621094 178.421875 C 124.9375 178.324219 125.261719 178.296875 125.59375 178.332031 Z M 125.59375 178.332031 " fill-opacity="1" fill-rule="nonzero"/><path fill="#d19a40" d="M 123.785156 194.683594 C 122.394531 194.722656 121.3125 195.878906 121.351562 197.273438 C 121.386719 198.667969 122.539062 199.757812 123.929688 199.71875 C 125.316406 199.683594 126.398438 198.523438 126.363281 197.128906 C 126.328125 195.734375 125.15625 194.648438 123.785156 194.683594 Z M 123.785156 194.683594 " fill-opacity="1" fill-rule="nonzero"/><path fill="#d19a40" d="M 143.945312 163.582031 C 144.234375 163.542969 144.523438 163.398438 144.738281 163.164062 L 147.480469 160.230469 C 147.984375 159.6875 147.964844 158.816406 147.40625 158.308594 C 146.867188 157.800781 146 157.820312 145.496094 158.382812 L 142.753906 161.316406 C 142.25 161.859375 142.269531 162.730469 142.828125 163.238281 C 143.132812 163.527344 143.546875 163.636719 143.945312 163.582031 Z M 143.945312 163.582031 " fill-opacity="1" fill-rule="nonzero"/><path fill="#d19a40" d="M 139.976562 167.839844 C 140.265625 167.800781 140.554688 167.65625 140.769531 167.421875 L 141.996094 166.097656 C 142.503906 165.554688 142.484375 164.6875 141.925781 164.179688 C 141.382812 163.671875 140.519531 163.691406 140.015625 164.25 L 138.789062 165.574219 C 138.28125 166.117188 138.300781 166.988281 138.859375 167.492188 C 139.167969 167.785156 139.582031 167.910156 139.976562 167.839844 Z M 139.976562 167.839844 " fill-opacity="1" fill-rule="nonzero"/><path fill="#d19a40" d="M 84.5625 160.699219 L 87.644531 163.273438 C 87.882812 163.472656 88.167969 163.582031 88.441406 163.582031 C 88.855469 163.597656 89.269531 163.4375 89.539062 163.089844 C 90.027344 162.511719 89.9375 161.660156 89.359375 161.171875 L 86.277344 158.597656 C 85.699219 158.109375 84.851562 158.199219 84.363281 158.78125 C 83.914062 159.359375 83.984375 160.210938 84.5625 160.699219 Z M 84.5625 160.699219 " fill-opacity="1" fill-rule="nonzero"/><path fill="#d19a40" d="M 90.730469 165.863281 L 92.117188 167.023438 C 92.351562 167.222656 92.640625 167.332031 92.910156 167.332031 C 93.328125 167.347656 93.742188 167.1875 94.011719 166.839844 C 94.5 166.261719 94.410156 165.410156 93.832031 164.921875 L 92.441406 163.761719 C 91.867188 163.273438 91.019531 163.363281 90.53125 163.941406 C 90.082031 164.523438 90.152344 165.375 90.730469 165.863281 Z M 90.730469 165.863281 " fill-opacity="1" fill-rule="nonzero"/><path fill="#d19a40" d="M 90.875 213.398438 C 90.316406 212.890625 89.449219 212.945312 88.960938 213.488281 L 86.257812 216.496094 C 85.753906 217.058594 85.808594 217.90625 86.347656 218.414062 C 86.636719 218.667969 86.980469 218.777344 87.339844 218.757812 C 87.683594 218.742188 88.023438 218.597656 88.277344 218.308594 L 90.984375 215.300781 C 91.46875 214.757812 91.433594 213.90625 90.875 213.398438 Z M 90.875 213.398438 " fill-opacity="1" fill-rule="nonzero"/><path fill="#d19a40" d="M 94.789062 209.03125 C 94.226562 208.523438 93.363281 208.578125 92.875 209.121094 L 91.667969 210.480469 C 91.164062 211.042969 91.21875 211.894531 91.757812 212.402344 C 92.046875 212.65625 92.390625 212.761719 92.75 212.746094 C 93.09375 212.726562 93.433594 212.582031 93.6875 212.292969 L 94.894531 210.933594 C 95.402344 210.410156 95.347656 209.539062 94.789062 209.03125 Z M 94.789062 209.03125 " fill-opacity="1" fill-rule="nonzero"/><path fill="#d19a40" d="M 147.136719 216.3125 L 144.144531 213.632812 C 143.585938 213.125 142.738281 213.179688 142.230469 213.742188 C 141.726562 214.304688 141.78125 215.15625 142.339844 215.660156 L 145.332031 218.34375 C 145.605469 218.578125 145.945312 218.707031 146.269531 218.6875 C 146.632812 218.667969 146.972656 218.523438 147.246094 218.234375 C 147.75 217.671875 147.695312 216.820312 147.136719 216.3125 Z M 147.136719 216.3125 " fill-opacity="1" fill-rule="nonzero"/><path fill="#d19a40" d="M 141.148438 210.933594 L 139.796875 209.71875 C 139.238281 209.210938 138.390625 209.265625 137.886719 209.828125 C 137.382812 210.390625 137.433594 211.242188 137.992188 211.75 L 139.347656 212.960938 C 139.617188 213.199219 139.960938 213.324219 140.285156 213.308594 C 140.644531 213.289062 141.003906 213.144531 141.257812 212.855469 C 141.761719 212.292969 141.707031 211.441406 141.148438 210.933594 Z M 141.148438 210.933594 " fill-opacity="1" fill-rule="nonzero"/><path fill="#d19a40" d="M 180.390625 181.132812 C 181.777344 181.207031 182.949219 180.121094 183.023438 178.726562 C 183.09375 177.332031 182.011719 176.152344 180.625 176.082031 C 179.234375 176.007812 178.0625 177.09375 177.992188 178.488281 C 177.9375 179.902344 179 181.078125 180.390625 181.132812 Z M 180.390625 181.132812 " fill-opacity="1" fill-rule="nonzero"/><path fill="#d19a40" d="M 179.234375 192.058594 C 177.847656 192.148438 176.78125 193.34375 176.855469 194.738281 C 176.925781 196.132812 178.136719 197.203125 179.523438 197.113281 C 180.914062 197.019531 181.976562 195.824219 181.902344 194.429688 C 181.832031 193.035156 180.625 191.96875 179.234375 192.058594 Z M 179.234375 192.058594 " fill-opacity="1" fill-rule="nonzero"/><path fill="#d19a40" d="M 196.636719 182.621094 C 198.007812 182.421875 198.945312 181.132812 198.746094 179.738281 C 198.546875 178.363281 197.269531 177.421875 195.878906 177.621094 C 194.507812 177.820312 193.570312 179.105469 193.769531 180.5 C 193.984375 181.878906 195.265625 182.820312 196.636719 182.621094 Z M 196.636719 182.621094 " fill-opacity="1" fill-rule="nonzero"/><path fill="#d19a40" d="M 194.726562 193.976562 C 193.335938 194.015625 192.253906 195.171875 192.289062 196.570312 C 192.328125 197.964844 193.480469 199.050781 194.871094 199.015625 C 196.257812 198.976562 197.339844 197.820312 197.304688 196.421875 C 197.269531 195.046875 196.113281 193.941406 194.726562 193.976562 Z M 194.726562 193.976562 " fill-opacity="1" fill-rule="nonzero"/><path fill="#d19a40" d="M 214.902344 162.875 C 215.191406 162.839844 215.480469 162.691406 215.699219 162.457031 L 218.4375 159.523438 C 218.945312 158.980469 218.925781 158.109375 218.367188 157.601562 C 217.824219 157.09375 216.960938 157.113281 216.453125 157.675781 L 213.714844 160.609375 C 213.210938 161.152344 213.226562 162.023438 213.785156 162.53125 C 214.09375 162.820312 214.507812 162.929688 214.902344 162.875 Z M 214.902344 162.875 " fill-opacity="1" fill-rule="nonzero"/><path fill="#d19a40" d="M 210.917969 167.148438 C 211.207031 167.113281 211.496094 166.96875 211.710938 166.734375 L 212.9375 165.410156 C 213.445312 164.867188 213.425781 163.996094 212.867188 163.492188 C 212.324219 162.984375 211.460938 163 210.953125 163.5625 L 209.730469 164.886719 C 209.222656 165.429688 209.242188 166.296875 209.800781 166.804688 C 210.105469 167.09375 210.523438 167.203125 210.917969 167.148438 Z M 210.917969 167.148438 " fill-opacity="1" fill-rule="nonzero"/><path fill="#d19a40" d="M 155.503906 159.992188 L 158.585938 162.566406 C 158.820312 162.765625 159.109375 162.875 159.382812 162.875 C 159.796875 162.890625 160.210938 162.730469 160.480469 162.386719 C 160.96875 161.804688 160.878906 160.953125 160.300781 160.464844 L 157.21875 157.894531 C 156.640625 157.402344 155.792969 157.496094 155.304688 158.074219 C 154.855469 158.671875 154.925781 159.523438 155.503906 159.992188 Z M 155.503906 159.992188 " fill-opacity="1" fill-rule="nonzero"/><path fill="#d19a40" d="M 161.671875 165.15625 L 163.058594 166.316406 C 163.292969 166.515625 163.582031 166.625 163.851562 166.625 C 164.269531 166.640625 164.683594 166.480469 164.953125 166.136719 C 165.441406 165.554688 165.351562 164.703125 164.773438 164.214844 L 163.382812 163.054688 C 162.808594 162.566406 161.960938 162.65625 161.472656 163.238281 C 161.023438 163.816406 161.09375 164.6875 161.671875 165.15625 Z M 161.671875 165.15625 " fill-opacity="1" fill-rule="nonzero"/><path fill="#d19a40" d="M 161.816406 212.691406 C 161.257812 212.183594 160.390625 212.238281 159.902344 212.78125 L 157.199219 215.789062 C 156.695312 216.351562 156.75 217.203125 157.289062 217.707031 C 157.578125 217.960938 157.921875 218.070312 158.28125 218.054688 C 158.625 218.035156 158.964844 217.890625 159.21875 217.601562 L 161.921875 214.59375 C 162.429688 214.066406 162.375 213.199219 161.816406 212.691406 Z M 161.816406 212.691406 " fill-opacity="1" fill-rule="nonzero"/><path fill="#d19a40" d="M 165.730469 208.34375 C 165.167969 207.835938 164.304688 207.890625 163.816406 208.433594 L 162.609375 209.792969 C 162.105469 210.355469 162.15625 211.207031 162.699219 211.710938 C 162.988281 211.964844 163.332031 212.074219 163.691406 212.058594 C 164.035156 212.039062 164.375 211.894531 164.628906 211.605469 L 165.835938 210.246094 C 166.339844 209.703125 166.289062 208.851562 165.730469 208.34375 Z M 165.730469 208.34375 " fill-opacity="1" fill-rule="nonzero"/><path fill="#d19a40" d="M 218.078125 215.609375 L 215.085938 212.925781 C 214.527344 212.417969 213.679688 212.472656 213.171875 213.035156 C 212.667969 213.597656 212.722656 214.449219 213.28125 214.957031 L 216.273438 217.636719 C 216.546875 217.871094 216.886719 218 217.210938 217.980469 C 217.574219 217.960938 217.914062 217.816406 218.1875 217.527344 C 218.691406 216.964844 218.636719 216.113281 218.078125 215.609375 Z M 218.078125 215.609375 " fill-opacity="1" fill-rule="nonzero"/><path fill="#d19a40" d="M 212.089844 210.246094 L 210.738281 209.03125 C 210.179688 208.523438 209.332031 208.578125 208.828125 209.140625 C 208.320312 209.703125 208.375 210.554688 208.933594 211.0625 L 210.289062 212.273438 C 210.558594 212.511719 210.902344 212.636719 211.226562 212.617188 C 211.585938 212.601562 211.929688 212.457031 212.199219 212.164062 C 212.703125 211.605469 212.648438 210.734375 212.089844 210.246094 Z M 212.089844 210.246094 " fill-opacity="1" fill-rule="nonzero"/><path fill="#d19a40" d="M 251.601562 180.480469 C 252.988281 180.554688 254.160156 179.46875 254.234375 178.074219 C 254.304688 176.679688 253.222656 175.5 251.835938 175.429688 C 250.445312 175.355469 249.273438 176.441406 249.203125 177.835938 C 249.148438 179.230469 250.210938 180.410156 251.601562 180.480469 Z M 251.601562 180.480469 " fill-opacity="1" fill-rule="nonzero"/><path fill="#d19a40" d="M 250.445312 191.386719 C 249.058594 191.476562 247.996094 192.671875 248.066406 194.070312 C 248.136719 195.464844 249.347656 196.53125 250.734375 196.441406 C 252.125 196.351562 253.1875 195.15625 253.117188 193.761719 C 253.042969 192.367188 251.835938 191.316406 250.445312 191.386719 Z M 250.445312 191.386719 " fill-opacity="1" fill-rule="nonzero"/><path fill="#d19a40" d="M 267.867188 181.96875 C 269.238281 181.769531 270.175781 180.480469 269.976562 179.085938 C 269.777344 177.710938 268.496094 176.769531 267.109375 176.96875 C 265.738281 177.167969 264.800781 178.453125 265 179.847656 C 265.214844 181.226562 266.496094 182.167969 267.867188 181.96875 Z M 267.867188 181.96875 " fill-opacity="1" fill-rule="nonzero"/><path fill="#d19a40" d="M 265.9375 193.324219 C 264.546875 193.363281 263.464844 194.523438 263.503906 195.917969 C 263.539062 197.3125 264.691406 198.398438 266.082031 198.363281 C 267.46875 198.324219 268.550781 197.167969 268.515625 195.769531 C 268.480469 194.375 267.324219 193.289062 265.9375 193.324219 Z M 265.9375 193.324219 " fill-opacity="1" fill-rule="nonzero"/><path fill="#d19a40" d="M 286.117188 162.222656 C 286.402344 162.1875 286.691406 162.042969 286.910156 161.804688 L 289.648438 158.871094 C 290.15625 158.328125 290.136719 157.457031 289.578125 156.949219 C 289.035156 156.445312 288.171875 156.460938 287.667969 157.023438 L 284.925781 159.957031 C 284.421875 160.5 284.4375 161.371094 284.996094 161.878906 C 285.304688 162.167969 285.71875 162.277344 286.117188 162.222656 Z M 286.117188 162.222656 " fill-opacity="1" fill-rule="nonzero"/><path fill="#d19a40" d="M 282.148438 166.480469 C 282.4375 166.441406 282.726562 166.296875 282.941406 166.0625 L 284.167969 164.738281 C 284.671875 164.195312 284.65625 163.328125 284.097656 162.820312 C 283.554688 162.3125 282.691406 162.332031 282.183594 162.890625 L 280.957031 164.214844 C 280.453125 164.757812 280.472656 165.628906 281.03125 166.136719 C 281.335938 166.425781 281.75 166.550781 282.148438 166.480469 Z M 282.148438 166.480469 " fill-opacity="1" fill-rule="nonzero"/><path fill="#d19a40" d="M 226.734375 159.34375 L 229.816406 161.914062 C 230.050781 162.113281 230.339844 162.222656 230.609375 162.222656 C 231.027344 162.242188 231.441406 162.078125 231.710938 161.734375 C 232.199219 161.152344 232.105469 160.300781 231.53125 159.8125 L 228.445312 157.242188 C 227.871094 156.75 227.023438 156.84375 226.535156 157.421875 C 226.066406 158 226.15625 158.851562 226.734375 159.34375 Z M 226.734375 159.34375 " fill-opacity="1" fill-rule="nonzero"/><path fill="#d19a40" d="M 232.882812 164.503906 L 234.269531 165.664062 C 234.503906 165.863281 234.792969 165.972656 235.066406 165.972656 C 235.480469 165.988281 235.894531 165.828125 236.164062 165.484375 C 236.652344 164.902344 236.5625 164.050781 235.984375 163.5625 L 234.597656 162.402344 C 234.019531 161.914062 233.171875 162.003906 232.683594 162.585938 C 232.234375 163.164062 232.324219 164.015625 232.882812 164.503906 Z M 232.882812 164.503906 " fill-opacity="1" fill-rule="nonzero"/><path fill="#d19a40" d="M 233.046875 212.039062 C 232.484375 211.53125 231.621094 211.585938 231.132812 212.128906 L 228.429688 215.136719 C 227.921875 215.699219 227.976562 216.550781 228.519531 217.058594 C 228.808594 217.308594 229.148438 217.417969 229.511719 217.402344 C 229.851562 217.382812 230.195312 217.238281 230.449219 216.949219 L 233.152344 213.941406 C 233.640625 213.398438 233.605469 212.546875 233.046875 212.039062 Z M 233.046875 212.039062 " fill-opacity="1" fill-rule="nonzero"/><path fill="#d19a40" d="M 236.957031 207.671875 C 236.398438 207.164062 235.535156 207.21875 235.046875 207.761719 L 233.839844 209.121094 C 233.332031 209.683594 233.386719 210.535156 233.929688 211.042969 C 234.21875 211.296875 234.558594 211.40625 234.921875 211.386719 C 235.261719 211.367188 235.605469 211.222656 235.859375 210.933594 L 237.066406 209.574219 C 237.554688 209.050781 237.515625 208.179688 236.957031 207.671875 Z M 236.957031 207.671875 " fill-opacity="1" fill-rule="nonzero"/><path fill="#d19a40" d="M 289.308594 214.957031 L 286.3125 212.273438 C 285.753906 211.765625 284.90625 211.820312 284.402344 212.382812 C 283.898438 212.945312 283.953125 213.796875 284.511719 214.304688 L 287.503906 216.984375 C 287.773438 217.21875 288.117188 217.347656 288.441406 217.328125 C 288.800781 217.308594 289.144531 217.164062 289.414062 216.875 C 289.902344 216.3125 289.847656 215.460938 289.308594 214.957031 Z M 289.308594 214.957031 " fill-opacity="1" fill-rule="nonzero"/><path fill="#d19a40" d="M 283.320312 209.574219 L 281.96875 208.363281 C 281.410156 207.855469 280.5625 207.910156 280.058594 208.46875 C 279.550781 209.03125 279.605469 209.882812 280.164062 210.390625 L 281.515625 211.605469 C 281.789062 211.839844 282.128906 211.964844 282.457031 211.949219 C 282.816406 211.929688 283.160156 211.785156 283.429688 211.496094 C 283.914062 210.933594 283.878906 210.082031 283.320312 209.574219 Z M 283.320312 209.574219 " fill-opacity="1" fill-rule="nonzero"/><g clip-path="url(#1178a4fa1c)"><path fill="#d19a40" d="M 366.109375 213.253906 C 366.089844 207.945312 365.242188 203.253906 363.585938 199.285156 C 361.277344 193.761719 357.09375 189.628906 351.808594 187.636719 C 350.402344 187.113281 348.816406 186.660156 347.121094 186.332031 C 348.078125 186.132812 348.976562 185.898438 349.773438 185.664062 C 355.542969 183.996094 360.210938 180.429688 362.917969 175.574219 C 366.144531 169.757812 367.066406 162.167969 365.695312 152.367188 C 365.53125 151.207031 364.324219 151.007812 363.65625 150.898438 C 363.132812 150.808594 362.429688 150.738281 361.546875 150.664062 C 360.539062 150.59375 359.347656 150.519531 358.011719 150.464844 L 357.941406 150.464844 C 352.675781 150.25 347.949219 150.917969 343.945312 152.402344 C 338.355469 154.488281 334.066406 158.527344 331.863281 163.742188 C 331.214844 165.265625 330.65625 167.039062 330.261719 168.925781 C 329.664062 166.171875 328.617188 163.5625 327.484375 161.460938 C 324.761719 156.496094 320.089844 152.929688 314.320312 151.425781 C 310.171875 150.339844 305.429688 150.175781 300.199219 150.917969 L 300.128906 150.9375 C 298.792969 151.117188 297.621094 151.316406 296.628906 151.5 C 295.761719 151.660156 295.058594 151.804688 294.554688 151.949219 C 294.429688 151.988281 294.285156 152.023438 294.140625 152.078125 C 293.691406 151.769531 293.113281 151.679688 292.734375 151.605469 C 292.210938 151.515625 291.507812 151.445312 290.625 151.371094 C 289.613281 151.296875 288.425781 151.226562 287.089844 151.171875 L 287.015625 151.171875 C 281.75 150.953125 277.027344 151.625 273.023438 153.109375 C 267.433594 155.195312 263.140625 159.234375 260.941406 164.449219 C 260.292969 165.972656 259.734375 167.746094 259.335938 169.632812 C 258.742188 166.878906 257.695312 164.269531 256.558594 162.167969 C 253.835938 157.203125 249.167969 153.636719 243.394531 152.132812 C 239.25 151.046875 234.503906 150.882812 229.277344 151.625 L 229.203125 151.644531 C 227.871094 151.824219 226.699219 152.023438 225.707031 152.203125 C 224.839844 152.367188 224.136719 152.511719 223.632812 152.65625 C 223.46875 152.695312 223.269531 152.746094 223.074219 152.839844 C 222.621094 152.457031 221.953125 152.347656 221.539062 152.277344 C 221.015625 152.1875 220.3125 152.113281 219.429688 152.042969 C 218.421875 151.96875 217.230469 151.898438 215.894531 151.84375 L 215.824219 151.84375 C 210.558594 151.625 205.832031 152.296875 201.832031 153.78125 C 196.238281 155.863281 191.949219 159.902344 189.75 165.121094 C 189.097656 166.640625 188.539062 168.417969 188.144531 170.300781 C 187.546875 167.546875 186.503906 164.941406 185.367188 162.839844 C 182.644531 157.875 177.972656 154.304688 172.203125 152.800781 C 168.054688 151.714844 163.3125 151.550781 158.082031 152.296875 L 158.011719 152.3125 C 156.675781 152.496094 155.503906 152.695312 154.511719 152.875 C 153.648438 153.039062 152.941406 153.183594 152.4375 153.328125 C 152.3125 153.363281 152.167969 153.398438 152.023438 153.453125 C 151.574219 153.148438 150.996094 153.054688 150.617188 152.984375 C 150.09375 152.894531 149.390625 152.820312 148.507812 152.75 C 147.496094 152.675781 146.308594 152.601562 144.972656 152.546875 L 144.902344 152.546875 C 139.636719 152.332031 134.910156 153 130.90625 154.488281 C 125.316406 156.570312 121.023438 160.609375 118.824219 165.828125 C 118.175781 167.347656 117.617188 169.125 117.21875 171.007812 C 116.625 168.253906 115.578125 165.644531 114.441406 163.542969 C 111.71875 158.582031 107.050781 155.011719 101.277344 153.507812 C 97.132812 152.421875 92.390625 152.257812 87.160156 153 L 87.085938 153.019531 C 85.753906 153.199219 84.582031 153.398438 83.589844 153.582031 C 82.722656 153.746094 82.019531 153.890625 81.515625 154.035156 C 81.28125 154.105469 80.957031 154.179688 80.648438 154.34375 C 80.199219 153.980469 79.566406 153.871094 79.152344 153.816406 C 78.628906 153.726562 77.925781 153.652344 77.042969 153.582031 C 76.03125 153.507812 74.84375 153.4375 73.507812 153.382812 L 73.4375 153.382812 C 68.171875 153.164062 63.445312 153.835938 59.441406 155.320312 C 53.851562 157.402344 49.5625 161.441406 47.359375 166.660156 C 46.710938 168.183594 46.152344 169.957031 45.757812 171.839844 C 45.160156 169.089844 44.113281 166.480469 42.980469 164.378906 C 40.257812 159.414062 35.585938 155.847656 29.816406 154.34375 C 25.667969 153.253906 20.925781 153.09375 15.695312 153.835938 L 15.625 153.851562 C 14.289062 154.035156 13.117188 154.234375 12.125 154.414062 C 11.257812 154.578125 10.554688 154.722656 10.050781 154.867188 C 9.421875 155.046875 8.230469 155.375 8.175781 156.535156 C 7.816406 166.441406 9.492188 173.886719 13.296875 179.339844 C 16.472656 183.886719 21.484375 186.96875 27.398438 188.019531 C 27.597656 188.054688 27.796875 188.089844 28.011719 188.125 C 25.792969 188.597656 23.703125 189.324219 21.933594 190.15625 C 16.796875 192.566406 12.9375 197.039062 11.042969 202.746094 C 9.691406 206.839844 9.203125 211.605469 9.617188 216.910156 L 9.617188 216.984375 C 9.726562 218.34375 9.835938 219.539062 9.941406 220.535156 C 10.050781 221.421875 10.160156 222.128906 10.25 222.65625 C 10.375 223.304688 10.628906 224.519531 11.800781 224.648438 C 15.136719 224.992188 18.203125 225.082031 21.03125 224.902344 C 26.570312 224.574219 31.148438 223.269531 34.917969 220.96875 C 39.660156 218.070312 43.070312 213.234375 44.511719 207.347656 C 44.691406 206.585938 44.890625 205.734375 45.054688 204.847656 C 45.394531 206.53125 45.847656 208.109375 46.277344 209.414062 C 48.171875 215.136719 51.921875 219.683594 56.863281 222.183594 C 60.867188 224.210938 65.628906 225.136719 71.308594 224.972656 C 74.011719 224.902344 76.933594 224.574219 80.074219 223.996094 C 81.226562 223.777344 81.371094 222.5625 81.441406 221.894531 C 81.480469 221.53125 81.535156 221.058594 81.550781 220.5 C 81.625 221.023438 81.695312 221.476562 81.769531 221.839844 C 81.894531 222.492188 82.144531 223.703125 83.320312 223.832031 C 86.65625 224.175781 89.71875 224.265625 92.550781 224.085938 C 98.085938 223.757812 102.667969 222.457031 106.4375 220.15625 C 111.179688 217.257812 114.585938 212.417969 116.03125 206.53125 C 116.210938 205.769531 116.410156 204.917969 116.570312 204.03125 C 116.914062 205.714844 117.363281 207.292969 117.796875 208.597656 C 119.691406 214.320312 123.441406 218.867188 128.382812 221.367188 C 132.386719 223.398438 137.144531 224.320312 142.828125 224.15625 C 145.53125 224.085938 148.453125 223.757812 151.589844 223.179688 C 152.4375 223.015625 152.746094 222.308594 152.871094 221.675781 C 153.050781 222.308594 153.394531 223.035156 154.296875 223.125 C 157.632812 223.46875 160.699219 223.558594 163.527344 223.378906 C 169.066406 223.054688 173.644531 221.75 177.414062 219.449219 C 182.15625 216.550781 185.566406 211.710938 187.007812 205.824219 C 187.1875 205.066406 187.386719 204.214844 187.546875 203.324219 C 187.890625 205.011719 188.339844 206.585938 188.773438 207.890625 C 190.667969 213.613281 194.417969 218.160156 199.359375 220.660156 C 203.363281 222.691406 208.125 223.613281 213.804688 223.453125 C 216.507812 223.378906 219.429688 223.054688 222.566406 222.472656 C 223.722656 222.253906 223.867188 221.042969 223.9375 220.371094 C 223.9375 220.335938 223.9375 220.300781 223.957031 220.246094 C 223.972656 220.316406 223.992188 220.390625 223.992188 220.460938 C 224.117188 221.113281 224.371094 222.328125 225.542969 222.457031 C 228.878906 222.800781 231.945312 222.890625 234.777344 222.707031 C 240.3125 222.382812 244.890625 221.078125 248.660156 218.777344 C 253.402344 215.878906 256.8125 211.042969 258.253906 205.15625 C 258.433594 204.394531 258.632812 203.542969 258.796875 202.65625 C 259.136719 204.339844 259.589844 205.914062 260.023438 207.21875 C 261.914062 212.945312 265.667969 217.492188 270.605469 219.992188 C 274.609375 222.019531 279.371094 222.945312 285.050781 222.78125 C 287.757812 222.707031 290.679688 222.382812 293.816406 221.804688 C 294.664062 221.640625 294.96875 220.933594 295.097656 220.300781 C 295.277344 220.933594 295.617188 221.65625 296.519531 221.75 C 299.855469 222.09375 302.921875 222.183594 305.753906 222.003906 C 311.289062 221.675781 315.871094 220.371094 319.636719 218.070312 C 324.382812 215.171875 327.789062 210.335938 329.230469 204.449219 C 329.414062 203.6875 329.609375 202.835938 329.773438 201.949219 C 330.117188 203.632812 330.566406 205.210938 331 206.515625 C 332.894531 212.238281 336.644531 216.785156 341.585938 219.285156 C 345.585938 221.3125 350.347656 222.238281 356.027344 222.074219 C 358.734375 222.003906 361.65625 221.675781 364.792969 221.097656 C 365.945312 220.878906 366.089844 219.664062 366.164062 218.996094 C 366.234375 218.46875 366.273438 217.761719 366.308594 216.859375 C 366.34375 215.84375 366.363281 214.648438 366.363281 213.289062 Z M 334.355469 164.832031 C 336.265625 160.300781 339.996094 156.804688 344.882812 154.976562 C 346.597656 154.34375 348.457031 153.871094 350.4375 153.5625 C 352.730469 153.21875 355.199219 153.09375 357.832031 153.199219 L 357.90625 153.199219 C 359.347656 153.253906 360.484375 153.328125 361.332031 153.382812 C 360.84375 153.925781 360.878906 154.777344 361.421875 155.285156 C 361.726562 155.574219 362.160156 155.699219 362.539062 155.628906 C 362.828125 155.59375 363.078125 155.445312 363.296875 155.230469 C 364.109375 163.238281 363.207031 169.46875 360.539062 174.25 C 358.191406 178.453125 354.097656 181.585938 349.015625 183.054688 C 345.550781 184.050781 337.203125 185.898438 334.371094 181.660156 C 331.34375 177.148438 332.191406 169.957031 334.355469 164.832031 Z M 300.488281 153.636719 L 300.558594 153.617188 C 305.429688 152.910156 309.828125 153.074219 313.617188 154.050781 C 318.664062 155.375 322.742188 158.472656 325.085938 162.765625 C 327.753906 167.636719 329.324219 174.722656 326.78125 179.523438 C 324.398438 184.03125 315.886719 183.035156 312.351562 182.402344 C 307.140625 181.480469 302.761719 178.78125 300 174.832031 C 296.882812 170.375 295.347656 164.289062 295.3125 156.316406 C 295.332031 156.316406 295.367188 156.316406 295.382812 156.316406 C 295.800781 156.335938 296.214844 156.171875 296.484375 155.828125 C 296.882812 155.355469 296.898438 154.703125 296.574219 154.214844 C 297.476562 154.105469 298.757812 153.890625 300.488281 153.636719 Z M 295.527344 199.847656 C 294.953125 201.566406 294.554688 203.417969 294.285156 205.371094 C 293.871094 203.453125 293.328125 201.660156 292.625 199.992188 C 290.316406 194.46875 286.132812 190.335938 280.851562 188.34375 C 279.445312 187.820312 277.855469 187.367188 276.160156 187.039062 C 277.117188 186.839844 278.019531 186.605469 278.8125 186.371094 C 284.582031 184.703125 289.253906 181.132812 291.957031 176.28125 C 293.078125 174.285156 293.90625 172.078125 294.484375 169.632812 C 295.3125 172.1875 296.414062 174.433594 297.800781 176.425781 C 300.976562 180.972656 305.988281 184.050781 311.902344 185.101562 C 312.101562 185.136719 312.300781 185.175781 312.515625 185.210938 C 310.296875 185.679688 308.207031 186.40625 306.4375 187.238281 C 301.28125 189.667969 297.421875 194.140625 295.527344 199.847656 Z M 263.394531 165.519531 C 265.304688 160.992188 269.039062 157.496094 273.925781 155.664062 C 275.636719 155.03125 277.496094 154.558594 279.480469 154.25 C 281.769531 153.90625 284.242188 153.78125 286.875 153.890625 L 286.945312 153.890625 C 288.386719 153.945312 289.523438 154.015625 290.371094 154.070312 C 289.882812 154.613281 289.921875 155.464844 290.460938 155.972656 C 290.769531 156.261719 291.199219 156.390625 291.578125 156.316406 C 291.867188 156.28125 292.121094 156.136719 292.335938 155.917969 C 293.148438 163.925781 292.246094 170.15625 289.578125 174.9375 C 287.234375 179.140625 283.140625 182.277344 278.054688 183.742188 C 274.59375 184.738281 266.242188 186.585938 263.414062 182.347656 C 260.402344 177.855469 261.230469 170.644531 263.394531 165.519531 Z M 229.546875 154.34375 L 229.617188 154.324219 C 234.488281 153.617188 238.886719 153.78125 242.675781 154.757812 C 247.722656 156.082031 251.800781 159.179688 254.144531 163.472656 C 256.8125 168.34375 258.382812 175.429688 255.839844 180.230469 C 253.457031 184.738281 244.945312 183.742188 241.414062 183.109375 C 236.199219 182.183594 231.820312 179.484375 229.058594 175.535156 C 225.941406 171.082031 224.40625 164.992188 224.371094 157.023438 C 224.390625 157.023438 224.425781 157.023438 224.445312 157.023438 C 224.859375 157.042969 225.273438 156.878906 225.542969 156.535156 C 225.941406 156.0625 225.957031 155.410156 225.632812 154.921875 C 226.535156 154.796875 227.796875 154.597656 229.546875 154.34375 Z M 224.585938 200.535156 C 223.9375 202.492188 223.488281 204.613281 223.253906 206.875 C 222.839844 204.628906 222.226562 202.546875 221.414062 200.644531 C 219.105469 195.121094 214.921875 190.988281 209.636719 188.996094 C 208.230469 188.472656 206.644531 188.019531 204.949219 187.691406 C 205.90625 187.492188 206.808594 187.257812 207.601562 187.023438 C 213.371094 185.355469 218.042969 181.785156 220.746094 176.933594 C 221.9375 174.792969 222.800781 172.421875 223.363281 169.792969 C 224.210938 172.546875 225.363281 174.992188 226.84375 177.113281 C 230.015625 181.660156 235.027344 184.738281 240.945312 185.789062 C 241.140625 185.828125 241.339844 185.863281 241.554688 185.898438 C 239.339844 186.371094 237.246094 187.09375 235.480469 187.925781 C 230.339844 190.355469 226.464844 194.828125 224.585938 200.535156 Z M 192.183594 166.1875 C 194.09375 161.660156 197.828125 158.164062 202.714844 156.335938 C 204.425781 155.699219 206.285156 155.230469 208.269531 154.921875 C 210.558594 154.578125 213.027344 154.449219 215.660156 154.558594 L 215.734375 154.558594 C 217.175781 154.613281 218.3125 154.6875 219.160156 154.742188 C 218.671875 155.285156 218.710938 156.136719 219.25 156.644531 C 219.554688 156.933594 219.988281 157.058594 220.367188 156.988281 C 220.65625 156.949219 220.910156 156.804688 221.125 156.589844 C 221.9375 164.59375 221.035156 170.828125 218.367188 175.609375 C 216.023438 179.8125 211.929688 182.945312 206.84375 184.414062 C 203.382812 185.410156 195.03125 187.257812 192.199219 183.019531 C 189.1875 178.507812 190.019531 171.316406 192.183594 166.1875 Z M 158.316406 154.996094 L 158.390625 154.976562 C 163.257812 154.269531 167.65625 154.433594 171.445312 155.410156 C 176.496094 156.734375 180.570312 159.832031 182.914062 164.125 C 185.582031 168.996094 187.152344 176.082031 184.609375 180.878906 C 182.230469 185.390625 173.71875 184.394531 170.183594 183.761719 C 164.972656 182.835938 160.589844 180.136719 157.832031 176.1875 C 154.710938 171.734375 153.175781 165.644531 153.140625 157.675781 C 153.160156 157.675781 153.175781 157.675781 153.214844 157.675781 C 153.628906 157.695312 154.042969 157.53125 154.3125 157.1875 C 154.710938 156.714844 154.730469 156.0625 154.402344 155.574219 C 155.324219 155.464844 156.585938 155.246094 158.316406 154.996094 Z M 153.375 201.207031 C 152.800781 202.925781 152.402344 204.773438 152.132812 206.730469 C 151.71875 204.8125 151.175781 203.015625 150.472656 201.351562 C 148.164062 195.824219 143.980469 191.695312 138.699219 189.703125 C 137.289062 189.175781 135.703125 188.726562 134.007812 188.398438 C 134.964844 188.199219 135.867188 187.964844 136.660156 187.726562 C 142.429688 186.0625 147.101562 182.492188 149.804688 177.636719 C 150.921875 175.644531 151.753906 173.433594 152.332031 170.988281 C 153.160156 173.542969 154.257812 175.789062 155.648438 177.78125 C 158.820312 182.328125 163.835938 185.410156 169.75 186.460938 C 169.949219 186.496094 170.148438 186.53125 170.363281 186.570312 C 168.144531 187.039062 166.054688 187.765625 164.285156 188.597656 C 159.128906 191.023438 155.25 195.5 153.375 201.207031 Z M 121.242188 166.878906 C 123.152344 162.347656 126.886719 158.851562 131.773438 157.023438 C 133.484375 156.390625 135.34375 155.917969 137.328125 155.609375 C 139.617188 155.265625 142.085938 155.140625 144.71875 155.246094 L 144.792969 155.246094 C 146.234375 155.300781 147.371094 155.375 148.21875 155.429688 C 147.730469 155.972656 147.769531 156.824219 148.308594 157.332031 C 148.617188 157.621094 149.046875 157.746094 149.425781 157.675781 C 149.714844 157.640625 149.96875 157.496094 150.183594 157.277344 C 150.996094 165.285156 150.09375 171.515625 147.425781 176.296875 C 145.082031 180.5 140.988281 183.632812 135.902344 185.101562 C 132.441406 186.097656 124.089844 187.945312 121.257812 183.707031 C 118.25 179.214844 119.078125 172.003906 121.242188 166.878906 Z M 87.375 155.699219 L 87.449219 155.683594 C 92.316406 154.976562 96.71875 155.140625 100.503906 156.117188 C 105.554688 157.441406 109.628906 160.539062 111.972656 164.832031 C 114.640625 169.703125 116.210938 176.785156 113.667969 181.585938 C 111.289062 186.097656 102.777344 185.101562 99.242188 184.46875 C 94.03125 183.542969 89.648438 180.84375 86.890625 176.894531 C 83.769531 172.4375 82.238281 166.351562 82.199219 158.382812 C 82.21875 158.382812 82.238281 158.382812 82.273438 158.382812 C 82.6875 158.398438 83.101562 158.238281 83.371094 157.894531 C 83.769531 157.421875 83.789062 156.769531 83.460938 156.28125 C 84.382812 156.152344 85.644531 155.953125 87.375 155.699219 Z M 49.757812 167.691406 C 51.671875 163.164062 55.402344 159.667969 60.289062 157.839844 C 62.003906 157.203125 63.859375 156.734375 65.84375 156.425781 C 68.136719 156.082031 70.605469 155.953125 73.238281 156.0625 L 73.308594 156.0625 C 74.753906 156.117188 75.890625 156.191406 76.738281 156.246094 C 76.25 156.789062 76.285156 157.640625 76.828125 158.144531 C 77.132812 158.4375 77.566406 158.5625 77.945312 158.492188 C 78.234375 158.453125 78.484375 158.308594 78.703125 158.09375 C 79.511719 166.097656 78.613281 172.332031 75.941406 177.113281 C 73.597656 181.316406 69.503906 184.449219 64.421875 185.917969 C 60.957031 186.914062 52.609375 188.761719 49.777344 184.523438 C 46.746094 180.03125 47.59375 172.820312 49.757812 167.691406 Z M 15.40625 177.746094 C 12.289062 173.289062 10.753906 167.203125 10.71875 159.234375 C 10.738281 159.234375 10.753906 159.234375 10.789062 159.234375 C 11.207031 159.25 11.621094 159.089844 11.890625 158.742188 C 12.289062 158.273438 12.304688 157.621094 11.980469 157.132812 C 12.882812 156.949219 14.144531 156.75 15.875 156.496094 L 15.949219 156.480469 C 20.816406 155.773438 25.214844 155.9375 29.003906 156.914062 C 34.054688 158.238281 38.128906 161.335938 40.472656 165.628906 C 43.140625 170.5 44.710938 177.582031 42.167969 182.382812 C 39.789062 186.894531 31.277344 185.898438 27.742188 185.265625 C 22.566406 184.378906 18.164062 181.695312 15.40625 177.746094 Z M 41.753906 206.695312 C 40.472656 211.875 37.515625 216.113281 33.386719 218.632812 C 28.625 221.53125 22.3125 222.671875 14.109375 222.109375 C 14.578125 221.550781 14.523438 220.714844 13.980469 220.226562 C 13.566406 219.847656 12.992188 219.773438 12.523438 219.992188 C 12.429688 219.15625 12.324219 218.105469 12.234375 216.765625 L 12.234375 216.695312 C 11.855469 211.75 12.289062 207.347656 13.53125 203.578125 C 15.171875 198.597656 18.542969 194.683594 23 192.601562 C 28.046875 190.226562 35.207031 189.125 39.839844 191.984375 C 44.167969 194.683594 42.617188 203.164062 41.753906 206.695312 Z M 45.070312 195.519531 C 44.53125 193.109375 43.394531 190.988281 41.246094 189.667969 C 40.183594 189.015625 39.046875 188.523438 37.875 188.179688 C 40.707031 187.601562 43.214844 186.277344 44.585938 183.6875 C 44.980469 182.929688 45.304688 182.148438 45.539062 181.332031 C 45.917969 183 46.550781 184.613281 47.523438 186.042969 C 48.714844 187.835938 50.460938 188.871094 52.445312 189.414062 C 50.824219 189.867188 49.273438 190.574219 47.902344 191.585938 C 46.496094 192.621094 45.613281 193.976562 45.070312 195.519531 Z M 57.945312 219.738281 C 53.65625 217.5625 50.371094 213.578125 48.714844 208.542969 C 47.578125 205.117188 45.378906 196.804688 49.488281 193.777344 C 51.5625 192.238281 54.285156 191.570312 57.136719 191.476562 C 60.253906 191.386719 63.519531 192.023438 66.242188 193.054688 C 70.820312 194.773438 74.464844 198.378906 76.484375 203.214844 C 78 206.839844 78.792969 211.1875 78.792969 216.132812 L 78.792969 216.222656 C 78.792969 217.816406 78.773438 219.03125 78.738281 219.917969 L 78.628906 219.828125 C 78.070312 219.320312 77.222656 219.375 76.71875 219.9375 C 76.25 220.460938 76.269531 221.257812 76.738281 221.765625 C 68.945312 222.855469 62.777344 222.183594 57.945312 219.738281 Z M 80.972656 209.339844 C 80.558594 206.730469 79.890625 204.339844 78.972656 202.167969 C 76.664062 196.640625 72.480469 192.511719 67.195312 190.519531 C 65.789062 189.992188 64.203125 189.539062 62.507812 189.214844 C 63.464844 189.015625 64.367188 188.777344 65.160156 188.542969 C 70.929688 186.875 75.601562 183.308594 78.304688 178.453125 C 79.585938 176.152344 80.503906 173.582031 81.066406 170.683594 C 81.910156 173.632812 83.121094 176.226562 84.6875 178.472656 C 87.863281 183.019531 92.875 186.097656 98.789062 187.148438 C 98.988281 187.183594 99.1875 187.222656 99.402344 187.257812 C 97.1875 187.726562 95.09375 188.453125 93.328125 189.285156 C 88.1875 191.695312 84.328125 196.171875 82.433594 201.875 C 81.675781 204.175781 81.191406 206.675781 80.972656 209.339844 Z M 113.253906 205.878906 C 111.972656 211.0625 109.015625 215.300781 104.886719 217.816406 C 100.125 220.714844 93.8125 221.855469 85.609375 221.296875 C 86.078125 220.734375 86.023438 219.902344 85.484375 219.410156 C 85.066406 219.03125 84.492188 218.957031 84.023438 219.175781 C 83.933594 218.34375 83.824219 217.292969 83.734375 215.953125 L 83.734375 215.878906 C 83.355469 210.933594 83.789062 206.53125 85.03125 202.765625 C 86.671875 197.78125 90.042969 193.871094 94.5 191.785156 C 99.546875 189.414062 106.707031 188.308594 111.339844 191.171875 C 115.652344 193.871094 114.117188 202.347656 113.253906 205.878906 Z M 116.570312 194.703125 C 116.03125 192.292969 114.894531 190.175781 112.75 188.851562 C 111.683594 188.199219 110.546875 187.710938 109.375 187.367188 C 112.207031 186.785156 114.714844 185.464844 116.085938 182.875 C 116.480469 182.113281 116.804688 181.332031 117.039062 180.519531 C 117.417969 182.183594 118.050781 183.796875 119.023438 185.226562 C 120.214844 187.023438 121.964844 188.054688 123.945312 188.597656 C 122.324219 189.050781 120.773438 189.757812 119.402344 190.773438 C 117.996094 191.804688 117.09375 193.164062 116.570312 194.703125 Z M 129.445312 218.921875 C 125.15625 216.75 121.871094 212.761719 120.214844 207.726562 C 119.078125 204.304688 116.878906 195.988281 120.988281 192.964844 C 123.0625 191.421875 125.785156 190.753906 128.636719 190.664062 C 131.753906 190.574219 135.019531 191.207031 137.742188 192.238281 C 142.320312 193.960938 145.964844 197.566406 147.984375 202.402344 C 149.5 206.023438 150.292969 210.371094 150.292969 215.316406 L 150.292969 215.410156 C 150.292969 217.003906 150.273438 218.214844 150.238281 219.105469 L 150.128906 219.011719 C 149.570312 218.507812 148.722656 218.558594 148.21875 219.121094 C 147.75 219.648438 147.769531 220.445312 148.238281 220.953125 C 140.429688 222.039062 134.261719 221.367188 129.445312 218.921875 Z M 184.195312 205.171875 C 182.914062 210.355469 179.957031 214.59375 175.828125 217.109375 C 171.066406 220.007812 164.753906 221.152344 156.550781 220.589844 C 157.019531 220.027344 156.964844 219.195312 156.421875 218.707031 C 156.007812 218.324219 155.433594 218.253906 154.964844 218.46875 C 154.871094 217.636719 154.765625 216.585938 154.675781 215.246094 L 154.675781 215.171875 C 154.296875 210.226562 154.730469 205.824219 155.972656 202.058594 C 157.613281 197.074219 160.984375 193.164062 165.441406 191.078125 C 170.488281 188.707031 177.648438 187.601562 182.28125 190.464844 C 186.609375 193.164062 185.058594 201.660156 184.195312 205.171875 Z M 187.511719 193.996094 C 186.972656 191.585938 185.835938 189.46875 183.6875 188.144531 C 182.625 187.492188 181.488281 187.003906 180.316406 186.660156 C 183.148438 186.078125 185.65625 184.757812 187.023438 182.167969 C 187.421875 181.40625 187.746094 180.628906 187.980469 179.8125 C 188.359375 181.480469 188.992188 183.089844 189.964844 184.523438 C 191.15625 186.316406 192.902344 187.347656 194.886719 187.890625 C 193.265625 188.34375 191.714844 189.050781 190.34375 190.066406 C 188.9375 191.097656 188.054688 192.457031 187.511719 193.996094 Z M 200.386719 218.234375 C 196.097656 216.058594 192.8125 212.074219 191.15625 207.039062 C 190.019531 203.617188 187.820312 195.300781 191.929688 192.273438 C 194.003906 190.734375 196.726562 190.066406 199.578125 189.972656 C 202.695312 189.882812 205.960938 190.519531 208.683594 191.550781 C 213.261719 193.273438 216.90625 196.875 218.925781 201.714844 C 220.441406 205.335938 221.234375 209.683594 221.234375 214.628906 L 221.234375 214.71875 C 221.234375 216.3125 221.214844 217.527344 221.179688 218.414062 L 221.070312 218.324219 C 220.511719 217.816406 219.664062 217.871094 219.160156 218.433594 C 218.691406 218.957031 218.710938 219.757812 219.179688 220.261719 C 211.371094 221.332031 205.203125 220.679688 200.386719 218.234375 Z M 255.40625 204.519531 C 254.125 209.703125 251.167969 213.941406 247.039062 216.457031 C 242.277344 219.355469 235.964844 220.5 227.761719 219.9375 C 228.230469 219.375 228.175781 218.542969 227.636719 218.054688 C 227.21875 217.671875 226.644531 217.601562 226.175781 217.816406 C 226.085938 216.984375 225.976562 215.933594 225.886719 214.59375 L 225.886719 214.519531 C 225.507812 209.574219 225.941406 205.171875 227.183594 201.40625 C 228.824219 196.421875 232.199219 192.511719 236.652344 190.425781 C 241.699219 188.054688 248.859375 186.949219 253.496094 189.8125 C 257.820312 192.511719 256.269531 200.988281 255.40625 204.519531 Z M 258.722656 193.34375 C 258.183594 190.933594 257.046875 188.816406 254.902344 187.492188 C 253.835938 186.839844 252.699219 186.351562 251.527344 186.007812 C 254.359375 185.425781 256.867188 184.105469 258.238281 181.515625 C 258.632812 180.753906 258.957031 179.976562 259.191406 179.160156 C 259.570312 180.828125 260.203125 182.4375 261.175781 183.871094 C 262.367188 185.664062 264.117188 186.695312 266.097656 187.238281 C 264.476562 187.691406 262.925781 188.398438 261.554688 189.414062 C 260.148438 190.445312 259.265625 191.804688 258.722656 193.34375 Z M 271.597656 217.5625 C 267.308594 215.390625 264.027344 211.40625 262.367188 206.367188 C 261.230469 202.945312 259.03125 194.628906 263.140625 191.605469 C 265.214844 190.066406 267.9375 189.394531 270.789062 189.304688 C 273.90625 189.214844 277.171875 189.847656 279.894531 190.878906 C 284.476562 192.601562 288.117188 196.207031 290.136719 201.042969 C 291.652344 204.664062 292.445312 209.011719 292.445312 213.960938 L 292.445312 214.050781 C 292.445312 215.644531 292.425781 216.859375 292.390625 217.746094 L 292.28125 217.65625 C 291.722656 217.148438 290.875 217.203125 290.371094 217.761719 C 289.902344 218.289062 289.921875 219.085938 290.390625 219.59375 C 282.597656 220.679688 276.433594 220.007812 271.597656 217.5625 Z M 326.363281 203.816406 C 325.085938 208.996094 322.128906 213.234375 317.996094 215.753906 C 313.238281 218.652344 306.925781 219.792969 298.71875 219.230469 C 299.191406 218.667969 299.136719 217.835938 298.59375 217.347656 C 298.179688 216.964844 297.601562 216.894531 297.132812 217.109375 C 297.042969 216.277344 296.933594 215.226562 296.84375 213.886719 L 296.84375 213.8125 C 296.464844 208.867188 296.898438 204.464844 298.144531 200.699219 C 299.785156 195.71875 303.15625 191.804688 307.609375 189.722656 C 312.660156 187.347656 319.820312 186.242188 324.453125 189.105469 C 328.761719 191.804688 327.230469 200.300781 326.363281 203.816406 Z M 329.664062 192.636719 C 329.125 190.226562 327.988281 188.109375 325.84375 186.785156 C 324.777344 186.132812 323.640625 185.644531 322.46875 185.300781 C 325.300781 184.722656 327.808594 183.398438 329.179688 180.808594 C 329.574219 180.046875 329.898438 179.269531 330.132812 178.453125 C 330.511719 180.121094 331.144531 181.730469 332.117188 183.164062 C 333.308594 184.957031 335.058594 185.988281 337.039062 186.53125 C 335.417969 186.984375 333.867188 187.691406 332.496094 188.707031 C 331.109375 189.738281 330.207031 191.097656 329.664062 192.636719 Z M 342.558594 216.875 C 338.265625 214.703125 334.984375 210.714844 333.324219 205.679688 C 332.191406 202.257812 329.988281 193.941406 334.101562 190.917969 C 336.175781 189.375 338.898438 188.707031 341.746094 188.617188 C 344.867188 188.523438 348.128906 189.160156 350.855469 190.191406 C 355.433594 191.914062 359.078125 195.519531 361.097656 200.355469 C 362.609375 203.976562 363.40625 208.324219 363.40625 213.269531 L 363.40625 213.359375 C 363.40625 214.957031 363.386719 216.167969 363.351562 217.058594 L 363.242188 216.964844 C 362.683594 216.457031 361.835938 216.511719 361.332031 217.074219 C 360.863281 217.601562 360.878906 218.398438 361.347656 218.90625 C 353.539062 219.972656 347.375 219.320312 342.558594 216.875 Z M 342.558594 216.875 " fill-opacity="1" fill-rule="nonzero"/></g><path fill="#d19a40" d="M 322.542969 179.777344 C 323.929688 179.847656 325.101562 178.761719 325.175781 177.367188 C 325.246094 175.972656 324.164062 174.792969 322.777344 174.722656 C 321.386719 174.648438 320.214844 175.734375 320.144531 177.132812 C 320.089844 178.542969 321.152344 179.722656 322.542969 179.777344 Z M 322.542969 179.777344 " fill-opacity="1" fill-rule="nonzero"/><path fill="#d19a40" d="M 321.386719 190.699219 C 320 190.789062 318.933594 191.984375 319.007812 193.378906 C 319.078125 194.773438 320.289062 195.84375 321.675781 195.753906 C 323.066406 195.664062 324.128906 194.46875 324.058594 193.074219 C 323.984375 191.675781 322.777344 190.609375 321.386719 190.699219 Z M 321.386719 190.699219 " fill-opacity="1" fill-rule="nonzero"/><path fill="#d19a40" d="M 338.808594 181.261719 C 340.179688 181.0625 341.117188 179.777344 340.917969 178.382812 C 340.71875 177.003906 339.4375 176.0625 338.050781 176.261719 C 336.679688 176.460938 335.742188 177.746094 335.941406 179.140625 C 336.15625 180.519531 337.4375 181.460938 338.808594 181.261719 Z M 338.808594 181.261719 " fill-opacity="1" fill-rule="nonzero"/><path fill="#d19a40" d="M 336.878906 192.621094 C 335.488281 192.65625 334.40625 193.816406 334.445312 195.210938 C 334.480469 196.605469 335.632812 197.691406 337.023438 197.65625 C 338.410156 197.621094 339.492188 196.460938 339.457031 195.066406 C 339.421875 193.671875 338.265625 192.582031 336.878906 192.621094 Z M 336.878906 192.621094 " fill-opacity="1" fill-rule="nonzero"/><path fill="#d19a40" d="M 357.058594 161.515625 C 357.34375 161.480469 357.632812 161.335938 357.851562 161.097656 L 360.589844 158.164062 C 361.097656 157.621094 361.078125 156.75 360.519531 156.246094 C 359.976562 155.738281 359.113281 155.753906 358.609375 156.316406 L 355.867188 159.25 C 355.363281 159.792969 355.378906 160.664062 355.9375 161.171875 C 356.246094 161.460938 356.660156 161.570312 357.058594 161.515625 Z M 357.058594 161.515625 " fill-opacity="1" fill-rule="nonzero"/><path fill="#d19a40" d="M 353.089844 165.789062 C 353.378906 165.753906 353.667969 165.609375 353.882812 165.375 L 355.109375 164.050781 C 355.613281 163.507812 355.597656 162.640625 355.039062 162.132812 C 354.496094 161.625 353.628906 161.640625 353.125 162.203125 L 351.898438 163.527344 C 351.394531 164.070312 351.414062 164.941406 351.972656 165.445312 C 352.277344 165.738281 352.691406 165.84375 353.089844 165.789062 Z M 353.089844 165.789062 " fill-opacity="1" fill-rule="nonzero"/><path fill="#d19a40" d="M 297.675781 158.636719 L 300.757812 161.207031 C 300.992188 161.40625 301.28125 161.515625 301.550781 161.515625 C 301.964844 161.535156 302.382812 161.371094 302.652344 161.027344 C 303.140625 160.445312 303.046875 159.59375 302.472656 159.105469 L 299.386719 156.535156 C 298.8125 156.046875 297.964844 156.136719 297.476562 156.714844 C 297.027344 157.3125 297.097656 158.164062 297.675781 158.636719 Z M 297.675781 158.636719 " fill-opacity="1" fill-rule="nonzero"/><path fill="#d19a40" d="M 303.84375 163.796875 L 305.230469 164.957031 C 305.464844 165.15625 305.753906 165.265625 306.023438 165.265625 C 306.4375 165.285156 306.851562 165.121094 307.125 164.777344 C 307.609375 164.195312 307.519531 163.34375 306.945312 162.855469 L 305.554688 161.695312 C 304.976562 161.207031 304.128906 161.296875 303.644531 161.878906 C 303.191406 162.457031 303.265625 163.328125 303.84375 163.796875 Z M 303.84375 163.796875 " fill-opacity="1" fill-rule="nonzero"/><path fill="#d19a40" d="M 303.984375 211.332031 C 303.425781 210.824219 302.5625 210.878906 302.074219 211.421875 L 299.371094 214.429688 C 298.863281 214.992188 298.917969 215.84375 299.460938 216.351562 C 299.75 216.605469 300.089844 216.710938 300.453125 216.695312 C 300.792969 216.675781 301.136719 216.53125 301.390625 216.242188 L 304.09375 213.234375 C 304.582031 212.710938 304.546875 211.839844 303.984375 211.332031 Z M 303.984375 211.332031 " fill-opacity="1" fill-rule="nonzero"/><path fill="#d19a40" d="M 307.898438 206.984375 C 307.339844 206.476562 306.476562 206.53125 305.988281 207.074219 L 304.78125 208.433594 C 304.273438 208.996094 304.328125 209.847656 304.871094 210.355469 C 305.160156 210.609375 305.5 210.714844 305.863281 210.699219 C 306.203125 210.679688 306.546875 210.535156 306.800781 210.246094 L 308.007812 208.886719 C 308.496094 208.34375 308.457031 207.492188 307.898438 206.984375 Z M 307.898438 206.984375 " fill-opacity="1" fill-rule="nonzero"/><path fill="#d19a40" d="M 360.25 214.25 L 357.253906 211.566406 C 356.695312 211.0625 355.847656 211.113281 355.34375 211.675781 C 354.839844 212.238281 354.894531 213.089844 355.453125 213.597656 L 358.445312 216.277344 C 358.714844 216.511719 359.058594 216.640625 359.382812 216.621094 C 359.742188 216.605469 360.105469 216.457031 360.355469 216.167969 C 360.84375 215.609375 360.808594 214.757812 360.25 214.25 Z M 360.25 214.25 " fill-opacity="1" fill-rule="nonzero"/><path fill="#d19a40" d="M 354.261719 208.886719 L 352.910156 207.671875 C 352.351562 207.164062 351.503906 207.21875 350.996094 207.78125 C 350.492188 208.34375 350.546875 209.195312 351.105469 209.703125 L 352.457031 210.914062 C 352.730469 211.152344 353.070312 211.277344 353.394531 211.261719 C 353.757812 211.242188 354.097656 211.097656 354.371094 210.808594 C 354.875 210.246094 354.820312 209.375 354.261719 208.886719 Z M 354.261719 208.886719 " fill-opacity="1" fill-rule="nonzero"/></svg>