<svg xmlns="http://www.w3.org/2000/svg" xmlns:xlink="http://www.w3.org/1999/xlink" width="500" zoomAndPan="magnify" viewBox="0 0 375 374.999991" height="500" preserveAspectRatio="xMidYMid meet" version="1.0"><defs><clipPath id="c92b9319c9"><path d="M 8.539062 158.347656 L 366.289062 158.347656 L 366.289062 229 L 8.539062 229 Z M 8.539062 158.347656 " clip-rule="nonzero"/></clipPath></defs><g clip-path="url(#c92b9319c9)"><path fill="#ce9e5f" d="M 214.972656 186.136719 C 214.972656 201.453125 202.625 213.871094 187.394531 213.871094 C 172.160156 213.871094 159.8125 201.453125 159.8125 186.136719 C 159.8125 170.820312 172.160156 158.40625 187.394531 158.40625 C 202.625 158.40625 214.972656 170.820312 214.972656 186.136719 Z M 284.996094 203.410156 C 281.578125 201 282.320312 198.714844 281.277344 194.164062 C 280.589844 191.191406 278.6875 187.019531 276.773438 185.890625 C 276.871094 186.886719 277.976562 189.871094 278.339844 191.109375 C 278.773438 192.609375 279.199219 195.234375 279.308594 196.878906 C 279.566406 200.804688 279.394531 202.753906 278.863281 206.585938 C 278.351562 210.234375 276.734375 214.863281 277.726562 218.476562 C 278.023438 219.566406 279.625 222.117188 280.34375 222.46875 C 280.9375 222.753906 280.757812 222.1875 280.367188 221.417969 C 279.257812 219.25 278.332031 218.074219 278.445312 215.171875 C 278.542969 212.8125 279.375 210.539062 280.507812 208.824219 C 281.5 207.308594 282.3125 206.523438 283.554688 205.664062 C 284.234375 205.203125 286.550781 204.503906 284.996094 203.410156 Z M 295.03125 197.136719 C 294.058594 196.394531 293.734375 194.273438 292.578125 193.859375 C 292.367188 193.785156 292.144531 193.742188 291.921875 193.722656 C 291.3125 193.671875 290.71875 193.804688 290.113281 193.851562 C 289.472656 193.898438 288.890625 193.832031 288.28125 193.503906 C 287.34375 192.992188 286.355469 191.953125 285.5625 191.089844 C 284.398438 189.828125 283.296875 188.457031 282.214844 187.0625 C 280.492188 184.839844 278.835938 182.511719 277.15625 180.234375 C 273.296875 175.019531 269.109375 171.773438 264.050781 169.277344 C 262.84375 168.683594 261.609375 168.195312 260.363281 167.785156 C 260.242188 167.742188 260.117188 167.703125 259.996094 167.664062 C 258.507812 167.195312 258.578125 166.691406 260.113281 167.019531 C 260.855469 167.179688 261.605469 167.363281 262.359375 167.566406 C 267.035156 168.835938 271.464844 171.800781 275.71875 174.6875 C 280.167969 177.699219 284.449219 181.25 288.554688 185.066406 C 290.660156 187.019531 292.773438 188.957031 294.878906 190.914062 C 295.257812 191.261719 295.652344 191.582031 296.042969 191.910156 C 296.648438 192.425781 297.253906 192.945312 297.851562 193.484375 C 298.519531 194.09375 299.191406 194.714844 299.796875 195.433594 C 299.917969 195.578125 300.382812 196.175781 300.433594 196.386719 C 299.90625 198.207031 296.050781 197.917969 295.03125 197.136719 Z M 238.042969 192.824219 C 239.125 186.792969 242.140625 189.015625 241.910156 194.335938 C 241.863281 195.3125 241.695312 196.394531 241.246094 197.175781 C 240.9375 197.703125 240.511719 198.046875 240.019531 198.070312 C 239.324219 198.097656 238.714844 197.503906 238.351562 196.71875 C 237.816406 195.566406 237.808594 194.105469 238.042969 192.824219 Z M 245.109375 194.214844 C 245.886719 187.484375 249.996094 187.355469 250.351562 194.71875 C 250.460938 196.992188 249.132812 201.066406 247.335938 200.398438 C 245.726562 199.796875 244.84375 196.523438 245.109375 194.214844 Z M 239.46875 209.136719 C 240.109375 203.605469 243.484375 203.5 243.777344 209.550781 C 243.867188 211.414062 242.777344 214.765625 241.300781 214.214844 C 239.980469 213.722656 239.253906 211.027344 239.46875 209.136719 Z M 319.921875 189.664062 C 319.621094 191.605469 318.445312 192.898438 317.292969 192.554688 C 316.148438 192.199219 315.457031 190.347656 315.757812 188.40625 C 316.0625 186.46875 317.242188 185.171875 318.386719 185.519531 C 319.539062 185.867188 320.226562 187.726562 319.921875 189.664062 Z M 361.105469 186.335938 C 358.941406 185.683594 356.886719 186.246094 354.796875 187.210938 C 352.792969 188.140625 351.140625 189.5 349.078125 190.019531 C 348.367188 190.199219 346.558594 190.167969 346.0625 190.460938 C 345.464844 190.8125 345.515625 193.042969 344.726562 194.601562 C 342.484375 199.046875 337.597656 202.832031 334.257812 204.589844 C 329.683594 206.996094 326.007812 207.207031 321.332031 205.84375 C 322.246094 205.242188 323.628906 205.207031 324.660156 204.878906 C 325.707031 204.546875 326.746094 204.148438 327.773438 203.660156 C 330.304688 202.445312 331.675781 200.929688 333.671875 198.296875 C 337.105469 193.777344 339.65625 184.085938 336.992188 177.640625 C 332.109375 165.808594 317.515625 165.453125 313.085938 178.605469 C 315.175781 175.945312 317.246094 173.550781 319.78125 172.058594 C 320.96875 171.359375 322.921875 171.144531 324.148438 171.582031 C 325.433594 172.03125 326.097656 173.800781 327.285156 173.835938 C 328.503906 173.875 329.183594 172.441406 330.523438 173.023438 C 331.605469 173.484375 332.925781 174.953125 333.640625 176.292969 C 335.496094 179.769531 336.628906 183.058594 335.875 187.742188 C 335.148438 192.222656 333.992188 194.761719 331.707031 197.5625 C 331.113281 198.289062 330.007812 199.699219 329.296875 199.59375 C 329.546875 198.839844 331.015625 193.761719 330.410156 190.441406 C 329.242188 184.019531 324.332031 181.304688 320.265625 181.3125 C 317.328125 181.324219 314.535156 183.304688 314.132812 188.566406 C 313.832031 192.53125 315.917969 196.496094 319.148438 194.644531 C 322.757812 192.574219 319.925781 184.105469 323.515625 184.886719 C 325.671875 185.355469 328.550781 188.347656 328.988281 191.933594 C 329.480469 195.984375 327.15625 199.695312 325.066406 201.386719 C 323.234375 202.871094 319.671875 203.34375 317.660156 202.941406 C 312.804688 201.980469 308.296875 199.28125 303.996094 195.707031 C 305.050781 193.792969 305.671875 190.695312 305.761719 187.683594 C 306.015625 179.3125 300.714844 175.8125 295.433594 176.0625 C 294.621094 176.101562 293.957031 176.136719 293.738281 176.402344 C 294.285156 177.332031 297.484375 176.910156 300.25 178.734375 C 304.695312 181.667969 305.625 189.425781 302.574219 194.402344 L 302.558594 194.402344 C 302.277344 194.390625 298.152344 190.222656 297.53125 189.632812 C 294 186.316406 290.328125 183.320312 286.765625 180.113281 C 284.992188 178.523438 282.96875 176.769531 281.101562 175.492188 C 280.144531 174.835938 279.136719 174.125 278.203125 173.410156 C 277.71875 173.039062 277.207031 172.621094 276.710938 172.292969 C 276.457031 172.132812 276.238281 172 276 171.785156 C 275.925781 171.722656 275.289062 171.082031 275.296875 171.035156 L 275.3125 170.984375 C 278.457031 170.550781 282.105469 174.046875 285.324219 174.398438 C 286.082031 174.480469 287.476562 174.726562 288.183594 174.617188 C 288.714844 174.53125 289.292969 174.457031 289.871094 174.351562 C 290.523438 174.230469 291.175781 174.066406 291.746094 173.792969 C 292.257812 173.550781 292.828125 173.25 293.40625 172.980469 C 294.621094 172.410156 296.339844 171.429688 297.9375 171.636719 C 299.4375 171.828125 300.265625 173.535156 301.230469 174.554688 C 298.160156 166.5 294.90625 172.398438 291.433594 172 C 290.335938 171.875 289.828125 170.78125 288.949219 170.59375 C 287.988281 170.390625 287.519531 171.039062 286.644531 171.277344 C 284.890625 171.769531 282.011719 170.980469 280.230469 170.402344 C 273.902344 168.359375 266.257812 163.550781 260.035156 163.261719 C 251.757812 162.875 247.246094 164.964844 239.609375 169.582031 C 234.503906 172.675781 226.164062 180.835938 220.847656 177.851562 C 221.484375 177.300781 222.9375 177.386719 223.679688 177.101562 C 224.652344 176.722656 225.53125 176.503906 226.476562 175.925781 C 228.675781 174.566406 229.828125 172.371094 231.367188 169.734375 C 231.804688 168.984375 233.476562 167.023438 234.058594 166.445312 C 234.457031 166.039062 234.789062 165.742188 235.113281 165.496094 C 235.652344 165.09375 236.160156 164.84375 236.925781 164.53125 C 238.398438 163.933594 240.453125 164.074219 241.980469 164.433594 C 242.285156 164.503906 242.546875 164.582031 242.714844 164.648438 C 242.484375 163.550781 239.75 162.691406 239 162.609375 C 236.628906 162.347656 234.140625 164.515625 232.082031 166.15625 C 231.65625 166.488281 231.34375 166.746094 231.277344 166.804688 C 229.878906 168.167969 228.964844 168.304688 227.421875 168.835938 C 227.167969 169.621094 227.578125 171.058594 226.78125 172.453125 C 224.957031 175.652344 222.019531 177.003906 219.484375 175.179688 C 217.628906 173.84375 218.976562 171.289062 220.105469 170.1875 C 220.457031 169.757812 221.082031 169.277344 221.507812 169.042969 C 221.765625 168.90625 221.78125 168.890625 221.546875 168.859375 C 220.785156 168.769531 219.945312 168.933594 219.222656 169.261719 C 218.1875 170.082031 217.589844 170.449219 216.96875 171.777344 C 216.667969 171.328125 216.367188 170.945312 216.070312 170.632812 C 218.46875 175.105469 219.859375 180.203125 219.9375 185.621094 C 220.21875 185.46875 220.5 185.316406 220.792969 185.164062 C 224.558594 183.132812 228.464844 180.035156 232.070312 177.261719 C 235.859375 174.34375 238.847656 171.628906 243.039062 170.421875 C 247.109375 169.246094 251.320312 169.363281 255.359375 170.578125 C 265.800781 173.722656 271.980469 183.511719 271.277344 195.773438 C 270.675781 206.324219 266.1875 213.269531 259.253906 217.460938 C 258.390625 217.980469 257.378906 218.601562 256.5 219 C 256.003906 219.222656 255.503906 219.421875 255.015625 219.664062 C 254.910156 219.710938 253.714844 220.402344 253.730469 220.4375 L 253.742188 220.449219 C 258.535156 219.921875 261.789062 218.484375 265.8125 214.132812 C 269.691406 209.9375 272.167969 203.042969 272.660156 196.019531 C 273.035156 190.667969 272.253906 185.242188 270.054688 180.875 C 267.792969 176.371094 263.636719 171.765625 259.566406 169.773438 C 259.289062 169.640625 258.890625 169.226562 259.609375 169.496094 C 262.054688 170.445312 264.8125 172.25 266.453125 173.839844 C 269.15625 176.464844 271.921875 180.402344 273.667969 184.621094 C 277.855469 194.703125 275.167969 206.710938 269.929688 214.445312 C 265.546875 220.933594 257.90625 225.367188 251.980469 224.640625 C 250.726562 224.488281 247.929688 223.925781 246.972656 222.796875 C 246.328125 222.03125 246.027344 220.308594 245.378906 219.835938 C 244.863281 219.464844 243.949219 220.421875 243.296875 220.507812 C 240.121094 220.949219 235.488281 215.613281 237.988281 210.234375 L 238 210.253906 C 238.105469 213.734375 239.519531 216.535156 241.375 216.71875 C 243.417969 216.917969 245.226562 213.871094 245.410156 209.914062 C 245.59375 205.964844 244.085938 202.597656 242.046875 202.394531 C 238.796875 202.078125 236.535156 208.300781 236.125 211.878906 C 235.9375 213.527344 236.0625 215.234375 236.355469 217.511719 C 234.875 216.777344 232.652344 211.535156 232.066406 209.195312 C 231.296875 206.128906 230.332031 202.003906 231.691406 198.898438 C 232.507812 197.035156 233.804688 196.585938 235.128906 196.453125 C 236.289062 196.339844 236.675781 196.933594 237.003906 197.722656 C 237.554688 199.03125 238.414062 200.800781 239.621094 200.996094 C 240.855469 201.203125 242.464844 199.464844 242.894531 197.964844 C 243.070312 197.34375 243.164062 196.746094 243.503906 196.203125 C 245.601562 209.457031 253.0625 201.953125 251.882812 192.511719 C 250.855469 184.273438 243.179688 184.917969 239.191406 186.289062 C 233.769531 188.15625 228.074219 194.476562 228.429688 204.269531 C 228.746094 212.957031 233.757812 220.113281 238.273438 223.863281 C 246.9375 231.058594 260.09375 228.46875 268.238281 220.027344 C 272.714844 215.382812 276.550781 207.359375 277.21875 198.777344 C 277.824219 191 275.273438 182.785156 271.257812 177.34375 C 271 176.996094 271.164062 176.753906 271.394531 176.976562 C 274.683594 180.160156 277.578125 184.265625 280.519531 188.195312 C 284.347656 193.324219 286.410156 196.3125 291.210938 199.171875 C 292.984375 200.226562 294.867188 200.621094 296.765625 200.375 C 298.398438 200.167969 301.34375 199.207031 302.765625 197.914062 C 303.066406 197.859375 302.890625 197.898438 303.234375 198.097656 C 304.082031 198.597656 305.246094 199.835938 306.171875 200.515625 C 307.203125 201.285156 308.253906 202.128906 309.277344 202.925781 C 311.328125 204.523438 313.480469 205.789062 315.679688 206.789062 C 324.988281 210.996094 334.652344 209.535156 342.910156 200.855469 C 346.875 196.6875 349.996094 191.96875 354.527344 189.351562 C 356.089844 188.449219 359.125 187.734375 360.75 188.125 C 363.007812 188.664062 364.25 190.074219 366.265625 191.226562 C 365.535156 188.582031 362.820312 186.855469 361.105469 186.335938 Z M 348.625 178.570312 C 348.453125 176.015625 346.8125 174.132812 344.957031 174.363281 C 343.097656 174.59375 341.722656 176.851562 341.894531 179.40625 C 342.058594 181.960938 343.699219 183.847656 345.558594 183.621094 C 347.417969 183.390625 348.789062 181.125 348.625 178.570312 Z M 356.339844 175.707031 C 356.183594 173.363281 354.675781 171.636719 352.972656 171.847656 C 351.269531 172.058594 350.007812 174.128906 350.164062 176.472656 C 350.316406 178.816406 351.824219 180.546875 353.527344 180.332031 C 355.230469 180.121094 356.492188 178.050781 356.339844 175.707031 Z M 29.835938 174.363281 C 27.980469 174.132812 26.335938 176.015625 26.167969 178.570312 C 26 181.125 27.375 183.390625 29.234375 183.621094 C 31.089844 183.847656 32.734375 181.960938 32.902344 179.40625 C 33.066406 176.851562 31.699219 174.59375 29.835938 174.363281 Z M 21.820312 171.847656 C 20.113281 171.636719 18.605469 173.363281 18.453125 175.707031 C 18.300781 178.050781 19.5625 180.121094 21.265625 180.332031 C 22.96875 180.546875 24.476562 178.816406 24.628906 176.472656 C 24.78125 174.128906 23.519531 172.058594 21.820312 171.847656 Z M 14.21875 174.082031 C 12.792969 173.90625 11.539062 175.347656 11.410156 177.300781 C 11.285156 179.253906 12.335938 180.984375 13.753906 181.160156 C 15.175781 181.332031 16.433594 179.894531 16.5625 177.9375 C 16.6875 175.984375 15.640625 174.253906 14.21875 174.082031 Z M 363.378906 177.300781 C 363.25 175.347656 361.996094 173.90625 360.574219 174.082031 C 359.15625 174.253906 358.101562 175.984375 358.230469 177.9375 C 358.355469 179.894531 359.617188 181.332031 361.035156 181.160156 C 362.460938 180.984375 363.503906 179.253906 363.378906 177.300781 Z M 95.484375 196.878906 C 95.59375 195.234375 96.015625 192.609375 96.457031 191.109375 C 96.816406 189.871094 97.917969 186.886719 98.019531 185.890625 C 96.101562 187.019531 94.203125 191.191406 93.519531 194.164062 C 92.472656 198.714844 93.214844 201 89.796875 203.410156 C 88.238281 204.503906 90.558594 205.203125 91.234375 205.664062 C 92.480469 206.523438 93.289062 207.308594 94.285156 208.824219 C 95.414062 210.539062 96.246094 212.8125 96.34375 215.171875 C 96.460938 218.074219 95.535156 219.25 94.425781 221.417969 C 94.03125 222.1875 93.855469 222.753906 94.445312 222.46875 C 95.160156 222.117188 96.765625 219.566406 97.0625 218.476562 C 98.054688 214.863281 96.4375 210.234375 95.929688 206.585938 C 95.394531 202.753906 95.222656 200.804688 95.484375 196.878906 Z M 114.796875 167.664062 C 114.671875 167.703125 114.550781 167.742188 114.429688 167.785156 C 113.183594 168.195312 111.949219 168.683594 110.742188 169.277344 C 105.683594 171.773438 101.5 175.019531 97.640625 180.234375 C 95.953125 182.511719 94.300781 184.839844 92.578125 187.0625 C 91.496094 188.457031 90.390625 189.828125 89.230469 191.089844 C 88.4375 191.953125 87.449219 192.992188 86.507812 193.503906 C 85.902344 193.832031 85.320312 193.898438 84.675781 193.851562 C 84.074219 193.804688 83.476562 193.671875 82.871094 193.722656 C 82.644531 193.742188 82.425781 193.785156 82.210938 193.859375 C 81.058594 194.273438 80.738281 196.394531 79.761719 197.136719 C 78.738281 197.917969 74.878906 198.207031 74.359375 196.386719 C 74.40625 196.175781 74.875 195.578125 74.996094 195.433594 C 75.601562 194.714844 76.273438 194.09375 76.941406 193.484375 C 77.535156 192.945312 78.140625 192.425781 78.75 191.910156 C 79.136719 191.582031 79.535156 191.261719 79.914062 190.914062 C 82.019531 188.957031 84.132812 187.019531 86.238281 185.066406 C 90.34375 181.25 94.625 177.699219 99.074219 174.6875 C 103.328125 171.800781 107.757812 168.835938 112.433594 167.566406 C 113.1875 167.363281 113.933594 167.179688 114.675781 167.019531 C 116.214844 166.691406 116.28125 167.195312 114.796875 167.664062 Z M 133.492188 214.214844 C 132.015625 214.765625 130.921875 211.414062 131.015625 209.550781 C 131.308594 203.5 134.679688 203.605469 135.320312 209.136719 C 135.539062 211.027344 134.808594 213.722656 133.492188 214.214844 Z M 136.441406 196.71875 C 136.078125 197.503906 135.46875 198.097656 134.777344 198.070312 C 134.277344 198.046875 133.855469 197.703125 133.546875 197.175781 C 133.09375 196.394531 132.925781 195.3125 132.882812 194.335938 C 132.652344 189.015625 135.667969 186.792969 136.753906 192.824219 C 136.980469 194.105469 136.976562 195.566406 136.441406 196.71875 Z M 127.457031 200.398438 C 125.660156 201.066406 124.328125 196.992188 124.441406 194.71875 C 124.796875 187.355469 128.902344 187.484375 129.683594 194.214844 C 129.949219 196.523438 129.058594 199.796875 127.457031 200.398438 Z M 56.402344 185.519531 C 57.550781 185.171875 58.726562 186.46875 59.03125 188.40625 C 59.332031 190.347656 58.644531 192.199219 57.496094 192.554688 C 56.347656 192.898438 55.171875 191.605469 54.871094 189.664062 C 54.566406 187.726562 55.253906 185.867188 56.402344 185.519531 Z M 157.824219 171.777344 C 157.199219 170.449219 156.605469 170.082031 155.570312 169.261719 C 154.847656 168.933594 154.007812 168.769531 153.246094 168.859375 C 153.007812 168.890625 153.023438 168.90625 153.28125 169.042969 C 153.710938 169.277344 154.335938 169.757812 154.6875 170.1875 C 155.816406 171.289062 157.164062 173.84375 155.308594 175.179688 C 152.777344 177.003906 149.839844 175.652344 148.011719 172.453125 C 147.210938 171.058594 147.621094 169.621094 147.367188 168.835938 C 145.828125 168.304688 144.910156 168.167969 143.511719 166.804688 C 143.449219 166.746094 143.136719 166.488281 142.710938 166.15625 C 140.652344 164.515625 138.164062 162.347656 135.792969 162.609375 C 135.042969 162.691406 132.308594 163.550781 132.082031 164.648438 C 132.246094 164.582031 132.507812 164.503906 132.816406 164.433594 C 134.335938 164.074219 136.394531 163.933594 137.867188 164.53125 C 138.628906 164.84375 139.144531 165.09375 139.679688 165.496094 C 140 165.742188 140.332031 166.039062 140.734375 166.445312 C 141.3125 167.023438 142.984375 168.984375 143.421875 169.734375 C 144.964844 172.371094 146.117188 174.566406 148.316406 175.925781 C 149.257812 176.503906 150.140625 176.722656 151.117188 177.101562 C 151.855469 177.386719 153.308594 177.300781 153.945312 177.851562 C 148.628906 180.835938 140.289062 172.675781 135.179688 169.582031 C 127.546875 164.964844 123.035156 162.875 114.757812 163.261719 C 108.535156 163.550781 100.886719 168.359375 94.566406 170.402344 C 92.78125 170.980469 89.902344 171.769531 88.144531 171.277344 C 87.273438 171.039062 86.800781 170.390625 85.84375 170.59375 C 84.964844 170.78125 84.457031 171.875 83.359375 172 C 79.882812 172.398438 76.632812 166.5 73.5625 174.554688 C 74.523438 173.535156 75.355469 171.828125 76.851562 171.636719 C 78.449219 171.429688 80.167969 172.410156 81.386719 172.980469 C 81.960938 173.25 82.53125 173.550781 83.042969 173.792969 C 83.617188 174.066406 84.269531 174.230469 84.921875 174.351562 C 85.5 174.457031 86.082031 174.53125 86.605469 174.617188 C 87.316406 174.726562 88.703125 174.480469 89.472656 174.398438 C 92.6875 174.046875 96.339844 170.550781 99.480469 170.984375 L 99.492188 171.035156 C 99.5 171.082031 98.867188 171.722656 98.796875 171.785156 C 98.554688 172 98.335938 172.132812 98.082031 172.292969 C 97.582031 172.621094 97.074219 173.039062 96.59375 173.410156 C 95.652344 174.125 94.644531 174.835938 93.6875 175.492188 C 91.824219 176.769531 89.800781 178.523438 88.027344 180.113281 C 84.460938 183.320312 80.789062 186.316406 77.261719 189.632812 C 76.636719 190.222656 72.515625 194.390625 72.230469 194.402344 L 72.21875 194.402344 C 69.167969 189.425781 70.097656 181.667969 74.546875 178.734375 C 77.308594 176.910156 80.507812 177.332031 81.050781 176.402344 C 80.832031 176.136719 80.167969 176.101562 79.355469 176.0625 C 74.074219 175.8125 68.777344 179.3125 69.03125 187.683594 C 69.121094 190.695312 69.742188 193.792969 70.796875 195.707031 C 66.5 199.28125 61.984375 201.980469 57.132812 202.941406 C 55.121094 203.34375 51.558594 202.871094 49.726562 201.386719 C 47.632812 199.695312 45.308594 195.984375 45.800781 191.933594 C 46.242188 188.347656 49.121094 185.355469 51.277344 184.886719 C 54.863281 184.105469 52.035156 192.574219 55.648438 194.644531 C 58.875 196.496094 60.960938 192.53125 60.65625 188.566406 C 60.257812 183.304688 57.464844 181.324219 54.523438 181.3125 C 50.464844 181.304688 45.546875 184.019531 44.378906 190.441406 C 43.773438 193.761719 45.246094 198.84375 45.492188 199.59375 C 44.785156 199.699219 43.679688 198.289062 43.082031 197.5625 C 40.800781 194.761719 39.640625 192.222656 38.921875 187.742188 C 38.160156 183.058594 39.296875 179.769531 41.152344 176.292969 C 41.867188 174.953125 43.1875 173.484375 44.261719 173.023438 C 45.605469 172.441406 46.285156 173.875 47.503906 173.835938 C 48.699219 173.800781 49.359375 172.03125 50.644531 171.582031 C 51.871094 171.144531 53.820312 171.359375 55.011719 172.058594 C 57.542969 173.550781 59.613281 175.945312 61.707031 178.605469 C 57.269531 165.453125 42.683594 165.808594 37.796875 177.640625 C 35.136719 184.085938 37.683594 193.777344 41.121094 198.296875 C 43.117188 200.929688 44.484375 202.445312 47.019531 203.660156 C 48.042969 204.148438 49.082031 204.546875 50.128906 204.878906 C 51.164062 205.207031 52.542969 205.242188 53.457031 205.84375 C 48.78125 207.207031 45.105469 206.996094 40.535156 204.589844 C 37.191406 202.832031 32.308594 199.046875 30.066406 194.601562 C 29.277344 193.042969 29.324219 190.8125 28.730469 190.460938 C 28.238281 190.167969 26.425781 190.199219 25.714844 190.019531 C 23.652344 189.5 22 188.140625 19.996094 187.210938 C 17.902344 186.246094 15.847656 185.683594 13.6875 186.335938 C 11.972656 186.855469 9.253906 188.582031 8.523438 191.226562 C 10.539062 190.074219 11.785156 188.664062 14.042969 188.125 C 15.667969 187.734375 18.699219 188.449219 20.261719 189.351562 C 24.800781 191.96875 27.914062 196.6875 31.878906 200.855469 C 40.136719 209.535156 49.804688 210.996094 59.109375 206.789062 C 61.3125 205.789062 63.464844 204.523438 65.515625 202.925781 C 66.539062 202.128906 67.59375 201.285156 68.621094 200.515625 C 69.542969 199.835938 70.707031 198.597656 71.5625 198.097656 C 71.898438 197.898438 71.730469 197.859375 72.027344 197.914062 C 73.445312 199.207031 76.394531 200.167969 78.019531 200.375 C 79.925781 200.621094 81.808594 200.226562 83.582031 199.171875 C 88.378906 196.3125 90.445312 193.324219 94.273438 188.195312 C 97.210938 184.265625 100.109375 180.160156 103.394531 176.976562 C 103.625 176.753906 103.792969 176.996094 103.535156 177.34375 C 99.515625 182.785156 96.96875 191 97.574219 198.777344 C 98.246094 207.359375 102.078125 215.382812 106.554688 220.027344 C 114.699219 228.46875 127.855469 231.058594 136.519531 223.863281 C 141.035156 220.113281 146.042969 212.957031 146.359375 204.269531 C 146.71875 194.476562 141.019531 188.15625 135.601562 186.289062 C 131.613281 184.917969 123.9375 184.273438 122.90625 192.511719 C 121.730469 201.953125 129.1875 209.457031 131.285156 196.203125 C 131.625 196.746094 131.722656 197.34375 131.902344 197.964844 C 132.328125 199.464844 133.9375 201.203125 135.171875 200.996094 C 136.378906 200.800781 137.238281 199.03125 137.785156 197.722656 C 138.113281 196.933594 138.5 196.339844 139.664062 196.453125 C 140.988281 196.585938 142.285156 197.035156 143.101562 198.898438 C 144.460938 202.003906 143.496094 206.128906 142.726562 209.195312 C 142.136719 211.535156 139.917969 216.777344 138.4375 217.511719 C 138.726562 215.234375 138.855469 213.527344 138.664062 211.878906 C 138.253906 208.300781 135.992188 202.078125 132.746094 202.394531 C 130.703125 202.597656 129.199219 205.964844 129.382812 209.914062 C 129.566406 213.871094 131.375 216.917969 133.417969 216.71875 C 135.273438 216.535156 136.6875 213.734375 136.789062 210.253906 L 136.808594 210.234375 C 139.304688 215.613281 134.667969 220.949219 131.496094 220.507812 C 130.84375 220.421875 129.925781 219.464844 129.410156 219.835938 C 128.761719 220.308594 128.464844 222.03125 127.816406 222.796875 C 126.867188 223.925781 124.066406 224.488281 122.8125 224.640625 C 116.886719 225.367188 109.246094 220.933594 104.859375 214.445312 C 99.625 206.710938 96.9375 194.703125 101.121094 184.621094 C 102.871094 180.402344 105.636719 176.464844 108.335938 173.839844 C 109.976562 172.25 112.734375 170.445312 115.183594 169.496094 C 115.902344 169.226562 115.503906 169.640625 115.226562 169.773438 C 111.15625 171.765625 107 176.371094 104.738281 180.875 C 102.539062 185.242188 101.757812 190.667969 102.132812 196.019531 C 102.625 203.042969 105.101562 209.9375 108.980469 214.132812 C 113.003906 218.484375 116.253906 219.921875 121.050781 220.449219 L 121.0625 220.4375 C 121.074219 220.402344 119.878906 219.710938 119.773438 219.664062 C 119.289062 219.421875 118.789062 219.222656 118.292969 219 C 117.414062 218.601562 116.402344 217.980469 115.539062 217.460938 C 108.601562 213.269531 104.117188 206.324219 103.511719 195.773438 C 102.8125 183.511719 108.992188 173.722656 119.4375 170.578125 C 123.472656 169.363281 127.679688 169.246094 131.753906 170.421875 C 135.945312 171.628906 138.933594 174.34375 142.722656 177.261719 C 146.328125 180.035156 150.230469 183.132812 154 185.164062 C 154.289062 185.316406 154.570312 185.46875 154.847656 185.621094 C 154.929688 180.203125 156.324219 175.105469 158.722656 170.632812 C 158.421875 170.945312 158.125 171.328125 157.824219 171.777344 Z M 154.878906 187.675781 C 154.152344 187.339844 153.429688 186.984375 152.714844 186.605469 C 148.445312 184.371094 144.457031 181.375 140.3125 178.667969 C 135.90625 175.800781 132.527344 173.605469 127.855469 171.839844 C 122.269531 169.726562 114.957031 171.609375 110.738281 177.503906 C 108.066406 181.238281 106.882812 184.441406 106.210938 189.597656 C 105.992188 191.328125 105.90625 195.894531 106.136719 197.652344 C 106.679688 201.75 107.84375 205.828125 109.785156 208.71875 C 111.882812 211.84375 115.261719 213.78125 118.023438 214.269531 C 118.761719 214.402344 119.417969 214.367188 119.90625 214.097656 C 120.679688 214.238281 110.527344 211.285156 109.203125 203.742188 C 108.953125 202.214844 109.179688 201.144531 109.863281 200.015625 C 111.339844 197.566406 110.890625 198.167969 110.3125 195.765625 C 109.910156 194.085938 109.773438 191.664062 110.613281 190.339844 C 111.792969 188.492188 112.96875 189.347656 113.5 188.507812 C 113.441406 186.527344 111.273438 184.820312 112.242188 180.710938 C 112.554688 179.402344 113.183594 178.585938 113.777344 177.671875 C 114.015625 177.300781 115.382812 175.839844 115.507812 175.910156 C 115.339844 176.261719 114.09375 179.523438 115.699219 182.785156 C 115.976562 183.351562 116.339844 183.804688 116.699219 184.144531 C 117.488281 184.886719 118.457031 185.371094 119.0625 185.210938 C 118.0625 184.015625 116.933594 182.71875 116.714844 180.570312 C 116.617188 179.613281 116.707031 178.609375 116.96875 177.71875 C 117.5625 175.496094 119.195312 174.492188 120.375 174.164062 C 120.570312 174.109375 120.667969 174.15625 120.523438 174.417969 C 119.867188 175.621094 119.121094 177.035156 119.917969 178.640625 C 120.601562 180.003906 122.027344 180.945312 122.324219 180.617188 C 119.613281 176.847656 122.144531 175.03125 124.484375 174.261719 C 126.453125 173.613281 129.078125 174.695312 131.027344 175.546875 C 134.84375 177.214844 138.234375 179.707031 141.898438 181.945312 C 145.671875 184.25 149.390625 186.8125 153.246094 188.742188 C 153.847656 189.039062 154.4375 189.320312 155.023438 189.582031 C 154.957031 188.953125 154.910156 188.3125 154.878906 187.675781 Z M 268.578125 189.597656 C 267.910156 184.441406 266.71875 181.238281 264.054688 177.503906 C 259.835938 171.609375 252.523438 169.726562 246.9375 171.839844 C 242.265625 173.605469 238.882812 175.800781 234.484375 178.667969 C 230.335938 181.375 226.347656 184.371094 222.074219 186.605469 C 221.359375 186.984375 220.636719 187.339844 219.910156 187.675781 C 219.878906 188.316406 219.832031 188.953125 219.765625 189.582031 C 220.355469 189.320312 220.945312 189.042969 221.546875 188.742188 C 225.402344 186.8125 229.121094 184.25 232.890625 181.945312 C 236.558594 179.707031 239.949219 177.214844 243.765625 175.546875 C 245.714844 174.695312 248.335938 173.613281 250.308594 174.261719 C 252.652344 175.03125 255.175781 176.847656 252.46875 180.617188 C 252.765625 180.945312 254.195312 180.003906 254.875 178.640625 C 255.675781 177.035156 254.925781 175.621094 254.265625 174.417969 C 254.125 174.15625 254.21875 174.109375 254.417969 174.164062 C 255.597656 174.492188 257.226562 175.496094 257.824219 177.71875 C 258.082031 178.609375 258.175781 179.613281 258.078125 180.570312 C 257.863281 182.71875 256.726562 184.015625 255.726562 185.210938 C 256.335938 185.371094 257.304688 184.886719 258.09375 184.144531 C 258.449219 183.804688 258.8125 183.351562 259.09375 182.785156 C 260.699219 179.523438 259.453125 176.261719 259.289062 175.910156 C 259.40625 175.839844 260.777344 177.300781 261.019531 177.671875 C 261.609375 178.585938 262.242188 179.402344 262.546875 180.710938 C 263.519531 184.820312 261.351562 186.527344 261.292969 188.507812 C 261.820312 189.347656 263 188.492188 264.175781 190.339844 C 265.019531 191.664062 264.878906 194.085938 264.476562 195.765625 C 263.90625 198.167969 263.449219 197.566406 264.929688 200.015625 C 265.609375 201.144531 265.839844 202.214844 265.585938 203.742188 C 264.265625 211.285156 254.113281 214.238281 254.878906 214.097656 C 255.371094 214.367188 256.035156 214.402344 256.769531 214.269531 C 259.53125 213.78125 262.914062 211.84375 265.007812 208.71875 C 266.949219 205.828125 268.109375 201.75 268.652344 197.652344 C 268.882812 195.894531 268.804688 191.328125 268.578125 189.597656 " fill-opacity="1" fill-rule="evenodd"/></g></svg>